<svg xmlns="http://www.w3.org/2000/svg" viewBox="0 0 1254.22 823.27"><defs><style>.cls-1{isolation:isolate;}.cls-2{fill:#e53e88;}.cls-3{fill:#e53f88;}.cls-4{fill:#e54089;}.cls-5{fill:#e54189;}.cls-6{fill:#e54289;}.cls-7{fill:#e54389;}.cls-8{fill:#e54489;}.cls-9{fill:#e5448a;}.cls-10{fill:#e5458a;}.cls-11{fill:#e5468a;}.cls-12{fill:#e6468a;}.cls-13{fill:#e6478a;}.cls-14{fill:#e6488a;}.cls-15{fill:#e6488b;}.cls-16{fill:#e6498b;}.cls-17{fill:#e64a8b;}.cls-18{fill:#e64b8b;}.cls-19{fill:#e64c8b;}.cls-20{fill:#e64c8c;}.cls-21{fill:#e64d8c;}.cls-22{fill:#e74e8c;}.cls-23{fill:#e74f8c;}.cls-24{fill:#e7508c;}.cls-25{fill:#e7508d;}.cls-26{fill:#e7518d;}.cls-27{fill:#e7528d;}.cls-28{fill:#e7538d;}.cls-29{fill:#e7538e;}.cls-30{fill:#e7548e;}.cls-31{fill:#e7558e;}.cls-32{fill:#e8558e;}.cls-33{fill:#e8568e;}.cls-34{fill:#e8578e;}.cls-35{fill:#e8578f;}.cls-36{fill:#e8588f;}.cls-37{fill:#e8598f;}.cls-38{fill:#e85a8f;}.cls-39{fill:#e85b8f;}.cls-40{fill:#e85b90;}.cls-41{fill:#e85c90;}.cls-42{fill:#e95c90;}.cls-43{fill:#e95d90;}.cls-44{fill:#e95e90;}.cls-45{fill:#e95e91;}.cls-46{fill:#e95f91;}.cls-47{fill:#e96091;}.cls-48{fill:#e96191;}.cls-49{fill:#e96192;}.cls-50{fill:#e96292;}.cls-51{fill:#e96392;}.cls-52{fill:#ea6392;}.cls-53{fill:#ea6492;}.cls-54{fill:#ea6592;}.cls-55{fill:#ea6593;}.cls-56{fill:#ea6693;}.cls-57{fill:#ea6793;}.cls-58{fill:#ea6893;}.cls-59{fill:#ea6894;}.cls-60{fill:#eb6894;}.cls-61{fill:#eb6994;}.cls-62{fill:#eb6a94;}.cls-63{fill:#eb6b94;}.cls-64{fill:#eb6b95;}.cls-65{fill:#eb6c95;}.cls-66{fill:#eb6d95;}.cls-67{fill:#ec6e95;}.cls-68{fill:#ec6e96;}.cls-69{fill:#ec6f96;}.cls-70{fill:#ec7096;}.cls-71{fill:#ec7196;}.cls-72{fill:#ec7197;}.cls-73{fill:#ec7297;}.cls-74{fill:#ed7397;}.cls-75{fill:#ed7497;}.cls-76{fill:#ed7498;}.cls-77{fill:#ed7598;}.cls-78{fill:#ed7698;}.cls-79{fill:#ed7798;}.cls-80{fill:#ee7798;}.cls-81{fill:#ee7898;}.cls-82{fill:#ee7899;}.cls-83{fill:#ee7999;}.cls-84{fill:#ee7a99;}.cls-85{fill:#ee7b99;}.cls-86{fill:#ee7b9a;}.cls-87{fill:#ee7c9a;}.cls-88{fill:#ef7c9a;}.cls-89{fill:#010101;opacity:0.3;}.cls-90{fill:#fcb568;}.cls-91{fill:#fff;}.cls-92{fill:#586b7f;}.cls-93{fill:#fdfeff;}.cls-94{fill:#9d6c87;}.cls-95{fill:#d4e0de;mix-blend-mode:multiply;}.cls-96,.cls-97,.cls-99{fill:#941a44;}.cls-97,.cls-98{opacity:0.5;mix-blend-mode:screen;}.cls-99{font-size:500px;font-family:Articha;}</style></defs><g class="cls-1"><g id="Layer_2" data-name="Layer 2"><g id="Layer_3" data-name="Layer 3"><g id="Layer_4" data-name="Layer 4"><circle class="cls-2" cx="1061.49" cy="256.35" r="105.84"/><circle class="cls-2" cx="1058.27" cy="261.58" r="105.79"/><circle class="cls-2" cx="1055.06" cy="266.78" r="105.75"/><circle class="cls-2" cx="1051.85" cy="271.94" r="105.7"/><circle class="cls-2" cx="1048.66" cy="277.06" r="105.65"/><circle class="cls-2" cx="1045.48" cy="282.15" r="105.61"/><circle class="cls-2" cx="1042.3" cy="287.2" r="105.56"/><circle class="cls-2" cx="1039.14" cy="292.21" r="105.51"/><circle class="cls-3" cx="1035.98" cy="297.18" r="105.47"/><circle class="cls-3" cx="1032.83" cy="302.12" r="105.42"/><circle class="cls-3" cx="1029.7" cy="307.02" r="105.37"/><circle class="cls-3" cx="1026.57" cy="311.89" r="105.33"/><circle class="cls-3" cx="1023.46" cy="316.71" r="105.28"/><circle class="cls-3" cx="1020.35" cy="321.51" r="105.23"/><circle class="cls-3" cx="1017.25" cy="326.26" r="105.19"/><circle class="cls-3" cx="1014.17" cy="330.98" r="105.14"/><circle class="cls-3" cx="1011.09" cy="335.66" r="105.09"/><circle class="cls-3" cx="1008.02" cy="340.31" r="105.05"/><circle class="cls-3" cx="1004.97" cy="344.92" r="105"/><circle class="cls-3" cx="1001.92" cy="349.5" r="104.95"/><circle class="cls-3" cx="998.88" cy="354.04" r="104.91"/><circle class="cls-4" cx="995.86" cy="358.54" r="104.86"/><circle class="cls-4" cx="992.84" cy="363.01" r="104.81"/><circle class="cls-4" cx="989.83" cy="367.44" r="104.77"/><circle class="cls-4" cx="986.84" cy="371.84" r="104.72"/><circle class="cls-4" cx="983.85" cy="376.2" r="104.67"/><circle class="cls-4" cx="980.88" cy="380.52" r="104.63"/><circle class="cls-4" cx="977.91" cy="384.81" r="104.58"/><circle class="cls-4" cx="974.96" cy="389.07" r="104.53"/><circle class="cls-4" cx="972.02" cy="393.29" r="104.49"/><circle class="cls-4" cx="969.08" cy="397.47" r="104.44"/><circle class="cls-4" cx="966.16" cy="401.62" r="104.39"/><circle class="cls-4" cx="963.25" cy="405.74" r="104.35"/><circle class="cls-5" cx="960.35" cy="409.82" r="104.3"/><circle class="cls-5" cx="957.46" cy="413.87" r="104.25"/><circle class="cls-5" cx="954.58" cy="417.88" r="104.21"/><circle class="cls-5" cx="951.71" cy="421.85" r="104.16"/><circle class="cls-5" cx="948.85" cy="425.8" r="104.12"/><circle class="cls-5" cx="946" cy="429.7" r="104.07"/><circle class="cls-5" cx="943.16" cy="433.58" r="104.02"/><circle class="cls-5" cx="940.34" cy="437.42" r="103.98"/><circle class="cls-5" cx="937.52" cy="441.22" r="103.93"/><circle class="cls-5" cx="934.72" cy="444.99" r="103.88"/><circle class="cls-5" cx="931.93" cy="448.73" r="103.84"/><circle class="cls-5" cx="929.15" cy="452.43" r="103.79"/><circle class="cls-5" cx="926.38" cy="456.1" r="103.74"/><circle class="cls-6" cx="923.62" cy="459.74" r="103.7"/><circle class="cls-6" cx="920.87" cy="463.34" r="103.65"/><circle class="cls-6" cx="918.13" cy="466.91" r="103.6"/><circle class="cls-6" cx="915.41" cy="470.44" r="103.56"/><circle class="cls-6" cx="912.69" cy="473.95" r="103.51"/><circle class="cls-6" cx="909.99" cy="477.41" r="103.46"/><circle class="cls-6" cx="907.3" cy="480.85" r="103.42"/><circle class="cls-6" cx="904.62" cy="484.25" r="103.37"/><circle class="cls-6" cx="901.95" cy="487.62" r="103.32"/><circle class="cls-6" cx="899.29" cy="490.96" r="103.28"/><circle class="cls-6" cx="896.65" cy="494.26" r="103.23"/><circle class="cls-6" cx="894.02" cy="497.53" r="103.18"/><circle class="cls-6" cx="891.39" cy="500.77" r="103.14"/><circle class="cls-7" cx="888.78" cy="503.97" r="103.09"/><circle class="cls-7" cx="886.19" cy="507.14" r="103.04"/><circle class="cls-7" cx="883.6" cy="510.28" r="103"/><circle class="cls-7" cx="881.03" cy="513.39" r="102.95"/><circle class="cls-7" cx="878.46" cy="516.47" r="102.9"/><circle class="cls-7" cx="875.91" cy="519.51" r="102.86"/><circle class="cls-7" cx="873.37" cy="522.52" r="102.81"/><circle class="cls-7" cx="870.85" cy="525.5" r="102.76"/><circle class="cls-7" cx="868.33" cy="528.44" r="102.72"/><circle class="cls-7" cx="865.83" cy="531.36" r="102.67"/><circle class="cls-7" cx="863.34" cy="534.24" r="102.62"/><circle class="cls-7" cx="860.86" cy="537.09" r="102.58"/><circle class="cls-7" cx="858.39" cy="539.91" r="102.53"/><circle class="cls-8" cx="855.94" cy="542.7" r="102.48"/><circle class="cls-8" cx="853.5" cy="545.46" r="102.44"/><circle class="cls-8" cx="851.07" cy="548.18" r="102.39"/><circle class="cls-8" cx="848.65" cy="550.87" r="102.34"/><circle class="cls-8" cx="846.25" cy="553.54" r="102.3"/><circle class="cls-9" cx="843.86" cy="556.17" r="102.25"/><circle class="cls-9" cx="841.48" cy="558.77" r="102.2"/><circle class="cls-9" cx="839.11" cy="561.34" r="102.16"/><circle class="cls-9" cx="836.75" cy="563.87" r="102.11"/><circle class="cls-9" cx="834.41" cy="566.38" r="102.06"/><circle class="cls-9" cx="832.08" cy="568.86" r="102.02"/><circle class="cls-9" cx="829.77" cy="571.3" r="101.97"/><circle class="cls-9" cx="827.46" cy="573.72" r="101.92"/><circle class="cls-10" cx="825.17" cy="576.1" r="101.88"/><circle class="cls-10" cx="822.89" cy="578.46" r="101.83"/><circle class="cls-10" cx="820.63" cy="580.78" r="101.78"/><circle class="cls-10" cx="818.38" cy="583.07" r="101.74"/><circle class="cls-10" cx="816.14" cy="585.34" r="101.69"/><circle class="cls-10" cx="813.91" cy="587.57" r="101.64"/><circle class="cls-10" cx="811.7" cy="589.77" r="101.6"/><circle class="cls-10" cx="809.5" cy="591.94" r="101.55"/><circle class="cls-10" cx="807.31" cy="594.09" r="101.5"/><circle class="cls-10" cx="805.14" cy="596.2" r="101.46"/><circle class="cls-10" cx="802.98" cy="598.29" r="101.41"/><circle class="cls-10" cx="800.83" cy="600.34" r="101.36"/><circle class="cls-10" cx="798.69" cy="602.36" r="101.32"/><circle class="cls-10" cx="796.57" cy="604.36" r="101.27"/><circle class="cls-11" cx="794.46" cy="606.32" r="101.22"/><circle class="cls-11" cx="792.37" cy="608.26" r="101.18"/><circle class="cls-11" cx="790.29" cy="610.17" r="101.13"/><circle class="cls-12" cx="788.22" cy="612.05" r="101.08"/><circle class="cls-12" cx="786.17" cy="613.9" r="101.04"/><circle class="cls-12" cx="784.13" cy="615.72" r="100.99"/><circle class="cls-12" cx="782.1" cy="617.51" r="100.94"/><circle class="cls-12" cx="780.09" cy="619.27" r="100.9"/><circle class="cls-12" cx="778.09" cy="621" r="100.85"/><circle class="cls-12" cx="776.1" cy="622.71" r="100.81"/><circle class="cls-12" cx="774.13" cy="624.38" r="100.76"/><circle class="cls-12" cx="772.17" cy="626.03" r="100.71"/><circle class="cls-13" cx="770.23" cy="627.65" r="100.67"/><circle class="cls-13" cx="768.3" cy="629.24" r="100.62"/><circle class="cls-13" cx="766.38" cy="630.81" r="100.57"/><circle class="cls-13" cx="764.48" cy="632.34" r="100.53"/><circle class="cls-13" cx="762.59" cy="633.85" r="100.48"/><circle class="cls-13" cx="760.72" cy="635.33" r="100.43"/><circle class="cls-13" cx="758.86" cy="636.78" r="100.39"/><circle class="cls-13" cx="757.01" cy="638.2" r="100.34"/><circle class="cls-13" cx="755.18" cy="639.6" r="100.29"/><circle class="cls-13" cx="753.36" cy="640.96" r="100.25"/><circle class="cls-13" cx="751.56" cy="642.3" r="100.2"/><circle class="cls-13" cx="749.77" cy="643.62" r="100.15"/><circle class="cls-13" cx="748" cy="644.9" r="100.11"/><circle class="cls-13" cx="746.24" cy="646.16" r="100.06"/><circle class="cls-14" cx="744.49" cy="647.39" r="100.01"/><circle class="cls-14" cx="742.76" cy="648.59" r="99.97"/><circle class="cls-14" cx="741.04" cy="649.77" r="99.92"/><circle class="cls-14" cx="739.34" cy="650.92" r="99.87"/><circle class="cls-14" cx="737.65" cy="652.04" r="99.83"/><circle class="cls-14" cx="735.98" cy="653.14" r="99.78"/><circle class="cls-15" cx="734.32" cy="654.21" r="99.73"/><circle class="cls-15" cx="732.68" cy="655.25" r="99.69"/><circle class="cls-15" cx="731.05" cy="656.26" r="99.64"/><circle class="cls-15" cx="729.43" cy="657.25" r="99.59"/><circle class="cls-15" cx="727.83" cy="658.22" r="99.55"/><circle class="cls-15" cx="726.25" cy="659.15" r="99.5"/><circle class="cls-15" cx="724.68" cy="660.06" r="99.45"/><circle class="cls-16" cx="723.12" cy="660.95" r="99.41"/><circle class="cls-16" cx="721.59" cy="661.8" r="99.36"/><circle class="cls-16" cx="720.06" cy="662.64" r="99.31"/><circle class="cls-16" cx="718.55" cy="663.44" r="99.27"/><circle class="cls-16" cx="717.06" cy="664.22" r="99.22"/><circle class="cls-16" cx="715.58" cy="664.98" r="99.17"/><circle class="cls-16" cx="714.11" cy="665.7" r="99.13"/><circle class="cls-16" cx="712.66" cy="666.41" r="99.08"/><circle class="cls-16" cx="711.23" cy="667.08" r="99.03"/><circle class="cls-16" cx="709.81" cy="667.74" r="98.99"/><circle class="cls-16" cx="708.41" cy="668.36" r="98.94"/><circle class="cls-16" cx="707.02" cy="668.96" r="98.89"/><circle class="cls-16" cx="705.65" cy="669.54" r="98.85"/><circle class="cls-17" cx="704.29" cy="670.09" r="98.8"/><circle class="cls-17" cx="702.95" cy="670.62" r="98.75"/><circle class="cls-17" cx="701.63" cy="671.12" r="98.71"/><circle class="cls-17" cx="700.32" cy="671.59" r="98.66"/><circle class="cls-17" cx="699.02" cy="672.05" r="98.61"/><circle class="cls-17" cx="697.75" cy="672.47" r="98.57"/><circle class="cls-17" cx="696.48" cy="672.87" r="98.52"/><circle class="cls-17" cx="695.24" cy="673.25" r="98.47"/><circle class="cls-17" cx="694.01" cy="673.61" r="98.43"/><circle class="cls-17" cx="692.79" cy="673.93" r="98.38"/><circle class="cls-17" cx="691.59" cy="674.24" r="98.33"/><circle class="cls-17" cx="690.41" cy="674.52" r="98.29"/><circle class="cls-17" cx="689.24" cy="674.77" r="98.24"/><circle class="cls-18" cx="688.09" cy="675.01" r="98.19"/><circle class="cls-18" cx="686.95" cy="675.21" r="98.15"/><circle class="cls-18" cx="685.83" cy="675.4" r="98.1"/><circle class="cls-18" cx="684.73" cy="675.56" r="98.05"/><circle class="cls-18" cx="683.64" cy="675.7" r="98.01"/><circle class="cls-18" cx="682.57" cy="675.81" r="97.96"/><circle class="cls-18" cx="681.52" cy="675.9" r="97.91"/><circle class="cls-18" cx="680.48" cy="675.96" r="97.87"/><circle class="cls-18" cx="679.46" cy="676.01" r="97.82"/><circle class="cls-18" cx="678.46" cy="676.03" r="97.77"/><circle class="cls-18" cx="677.47" cy="676.02" r="97.73"/><circle class="cls-18" cx="676.49" cy="675.99" r="97.68"/><circle class="cls-18" cx="675.54" cy="675.94" r="97.63"/><circle class="cls-18" cx="674.6" cy="675.87" r="97.59"/><circle class="cls-19" cx="673.68" cy="675.77" r="97.54"/><circle class="cls-19" cx="672.77" cy="675.66" r="97.5"/><circle class="cls-19" cx="671.88" cy="675.51" r="97.45"/><circle class="cls-19" cx="671.01" cy="675.35" r="97.4"/><circle class="cls-19" cx="670.15" cy="675.16" r="97.36"/><circle class="cls-19" cx="669.31" cy="674.95" r="97.31"/><circle class="cls-20" cx="668.49" cy="674.72" r="97.26"/><circle class="cls-20" cx="667.69" cy="674.47" r="97.22"/><circle class="cls-20" cx="666.9" cy="674.19" r="97.17"/><circle class="cls-20" cx="666.13" cy="673.89" r="97.12"/><circle class="cls-20" cx="665.37" cy="673.57" r="97.08"/><circle class="cls-20" cx="664.63" cy="673.23" r="97.03"/><circle class="cls-20" cx="663.91" cy="672.87" r="96.98"/><circle class="cls-20" cx="663.21" cy="672.48" r="96.94"/><circle class="cls-21" cx="662.53" cy="672.07" r="96.89"/><circle class="cls-21" cx="661.86" cy="671.64" r="96.84"/><circle class="cls-21" cx="661.2" cy="671.19" r="96.8"/><circle class="cls-21" cx="660.57" cy="670.72" r="96.75"/><circle class="cls-21" cx="659.95" cy="670.22" r="96.7"/><circle class="cls-21" cx="659.35" cy="669.71" r="96.66"/><circle class="cls-21" cx="658.77" cy="669.17" r="96.61"/><circle class="cls-21" cx="658.21" cy="668.61" r="96.56"/><circle class="cls-21" cx="657.66" cy="668.03" r="96.52"/><circle class="cls-21" cx="657.13" cy="667.43" r="96.47"/><circle class="cls-21" cx="656.62" cy="666.81" r="96.42"/><circle class="cls-21" cx="656.12" cy="666.17" r="96.38"/><circle class="cls-21" cx="655.65" cy="665.51" r="96.33"/><circle class="cls-21" cx="655.19" cy="664.82" r="96.28"/><circle class="cls-22" cx="654.75" cy="664.12" r="96.24"/><circle class="cls-22" cx="654.32" cy="663.39" r="96.19"/><circle class="cls-22" cx="653.92" cy="662.65" r="96.14"/><circle class="cls-22" cx="653.53" cy="661.88" r="96.1"/><circle class="cls-22" cx="653.16" cy="661.1" r="96.05"/><circle class="cls-22" cx="652.81" cy="660.29" r="96"/><circle class="cls-22" cx="652.48" cy="659.47" r="95.96"/><circle class="cls-22" cx="652.16" cy="658.62" r="95.91"/><circle class="cls-22" cx="651.86" cy="657.75" r="95.86"/><circle class="cls-22" cx="651.58" cy="656.87" r="95.82"/><circle class="cls-22" cx="651.32" cy="655.96" r="95.77"/><circle class="cls-22" cx="651.08" cy="655.04" r="95.72"/><circle class="cls-22" cx="650.85" cy="654.09" r="95.68"/><circle class="cls-22" cx="650.65" cy="653.13" r="95.63"/><circle class="cls-23" cx="650.46" cy="652.14" r="95.58"/><circle class="cls-23" cx="650.29" cy="651.14" r="95.54"/><circle class="cls-23" cx="650.14" cy="650.12" r="95.49"/><circle class="cls-23" cx="650" cy="649.08" r="95.44"/><circle class="cls-23" cx="649.89" cy="648.02" r="95.4"/><circle class="cls-23" cx="649.79" cy="646.94" r="95.35"/><circle class="cls-23" cx="649.71" cy="645.84" r="95.3"/><circle class="cls-23" cx="649.65" cy="644.72" r="95.26"/><circle class="cls-23" cx="649.62" cy="643.57" r="95.21"/><circle class="cls-23" cx="649.61" cy="642.37" r="95.16"/><circle class="cls-23" cx="649.63" cy="641.12" r="95.12"/><circle class="cls-23" cx="649.69" cy="639.82" r="95.07"/><circle class="cls-23" cx="649.78" cy="638.47" r="95.02"/><circle class="cls-23" cx="649.91" cy="637.08" r="94.98"/><circle class="cls-24" cx="650.06" cy="635.65" r="94.93"/><circle class="cls-24" cx="650.25" cy="634.17" r="94.88"/><circle class="cls-24" cx="650.47" cy="632.64" r="94.84"/><circle class="cls-24" cx="650.72" cy="631.07" r="94.79"/><circle class="cls-25" cx="651" cy="629.46" r="94.74"/><circle class="cls-25" cx="651.32" cy="627.8" r="94.7"/><circle class="cls-25" cx="651.66" cy="626.1" r="94.65"/><circle class="cls-25" cx="652.03" cy="624.36" r="94.6"/><circle class="cls-25" cx="652.43" cy="622.57" r="94.56"/><circle class="cls-25" cx="652.86" cy="620.75" r="94.51"/><circle class="cls-25" cx="653.32" cy="618.88" r="94.46"/><circle class="cls-25" cx="653.81" cy="616.98" r="94.42"/><circle class="cls-25" cx="654.32" cy="615.03" r="94.37"/><circle class="cls-25" cx="654.86" cy="613.05" r="94.32"/><circle class="cls-26" cx="655.43" cy="611.02" r="94.28"/><circle class="cls-26" cx="656.03" cy="608.96" r="94.23"/><circle class="cls-26" cx="656.65" cy="606.86" r="94.18"/><circle class="cls-26" cx="657.29" cy="604.73" r="94.14"/><circle class="cls-26" cx="657.97" cy="602.55" r="94.09"/><circle class="cls-26" cx="658.66" cy="600.34" r="94.05"/><circle class="cls-26" cx="659.39" cy="598.1" r="94"/><circle class="cls-26" cx="660.13" cy="595.82" r="93.95"/><circle class="cls-26" cx="660.9" cy="593.5" r="93.91"/><circle class="cls-26" cx="661.7" cy="591.15" r="93.86"/><circle class="cls-26" cx="662.51" cy="588.76" r="93.81"/><circle class="cls-26" cx="663.35" cy="586.35" r="93.77"/><circle class="cls-26" cx="664.22" cy="583.9" r="93.72"/><circle class="cls-26" cx="665.1" cy="581.41" r="93.67"/><circle class="cls-26" cx="666.01" cy="578.9" r="93.63"/><circle class="cls-27" cx="666.93" cy="576.35" r="93.58"/><circle class="cls-27" cx="667.88" cy="573.77" r="93.53"/><circle class="cls-27" cx="668.85" cy="571.16" r="93.49"/><circle class="cls-27" cx="669.84" cy="568.53" r="93.44"/><circle class="cls-27" cx="670.85" cy="565.86" r="93.39"/><circle class="cls-27" cx="671.88" cy="563.16" r="93.35"/><circle class="cls-27" cx="672.92" cy="560.44" r="93.3"/><circle class="cls-27" cx="673.99" cy="557.68" r="93.25"/><circle class="cls-27" cx="675.07" cy="554.9" r="93.21"/><circle class="cls-27" cx="676.17" cy="552.09" r="93.16"/><circle class="cls-27" cx="677.29" cy="549.26" r="93.11"/><circle class="cls-27" cx="678.43" cy="546.4" r="93.07"/><circle class="cls-27" cx="679.58" cy="543.51" r="93.02"/><circle class="cls-27" cx="680.75" cy="540.6" r="92.97"/><circle class="cls-27" cx="681.93" cy="537.66" r="92.93"/><circle class="cls-28" cx="683.13" cy="534.7" r="92.88"/><circle class="cls-28" cx="684.35" cy="531.72" r="92.83"/><circle class="cls-28" cx="685.58" cy="528.71" r="92.79"/><circle class="cls-28" cx="686.82" cy="525.68" r="92.74"/><circle class="cls-28" cx="688.08" cy="522.63" r="92.69"/><circle class="cls-28" cx="689.35" cy="519.55" r="92.65"/><circle class="cls-28" cx="690.64" cy="516.46" r="92.6"/><circle class="cls-28" cx="691.94" cy="513.34" r="92.55"/><circle class="cls-28" cx="693.25" cy="510.21" r="92.51"/><circle class="cls-28" cx="694.57" cy="507.05" r="92.46"/><circle class="cls-28" cx="695.9" cy="503.87" r="92.41"/><circle class="cls-28" cx="697.25" cy="500.68" r="92.37"/><circle class="cls-28" cx="698.61" cy="497.47" r="92.32"/><circle class="cls-29" cx="699.98" cy="494.24" r="92.27"/><circle class="cls-29" cx="701.35" cy="490.99" r="92.23"/><circle class="cls-30" cx="702.74" cy="487.72" r="92.18"/><circle class="cls-30" cx="704.14" cy="484.44" r="92.13"/><circle class="cls-30" cx="705.54" cy="481.14" r="92.09"/><circle class="cls-30" cx="706.96" cy="477.83" r="92.04"/><circle class="cls-30" cx="708.38" cy="474.5" r="91.99"/><circle class="cls-30" cx="709.81" cy="471.16" r="91.95"/><circle class="cls-30" cx="711.25" cy="467.81" r="91.9"/><circle class="cls-30" cx="712.7" cy="464.44" r="91.85"/><circle class="cls-30" cx="714.15" cy="461.05" r="91.81"/><circle class="cls-30" cx="715.61" cy="457.66" r="91.76"/><circle class="cls-30" cx="717.07" cy="454.25" r="91.71"/><circle class="cls-30" cx="718.54" cy="450.83" r="91.67"/><circle class="cls-30" cx="720.02" cy="447.4" r="91.62"/><circle class="cls-30" cx="721.5" cy="443.96" r="91.57"/><circle class="cls-30" cx="722.98" cy="440.51" r="91.53"/><circle class="cls-31" cx="724.47" cy="437.05" r="91.48"/><circle class="cls-31" cx="725.97" cy="433.58" r="91.43"/><circle class="cls-31" cx="727.46" cy="430.1" r="91.39"/><circle class="cls-31" cx="728.96" cy="426.62" r="91.34"/><circle class="cls-31" cx="730.46" cy="423.12" r="91.29"/><circle class="cls-32" cx="731.97" cy="419.62" r="91.25"/><circle class="cls-32" cx="733.47" cy="416.12" r="91.2"/><circle class="cls-32" cx="734.98" cy="412.6" r="91.15"/><circle class="cls-32" cx="736.49" cy="409.08" r="91.11"/><circle class="cls-32" cx="738" cy="405.56" r="91.06"/><circle class="cls-32" cx="739.51" cy="402.03" r="91.01"/><circle class="cls-32" cx="741.02" cy="398.49" r="90.97"/><circle class="cls-32" cx="742.53" cy="394.96" r="90.92"/><circle class="cls-32" cx="744.04" cy="391.42" r="90.87"/><circle class="cls-32" cx="745.54" cy="387.87" r="90.83"/><circle class="cls-33" cx="747.05" cy="384.33" r="90.78"/><circle class="cls-33" cx="748.55" cy="380.78" r="90.74"/><circle class="cls-33" cx="750.05" cy="377.23" r="90.69"/><circle class="cls-33" cx="751.55" cy="373.68" r="90.64"/><circle class="cls-33" cx="753.05" cy="370.13" r="90.6"/><circle class="cls-33" cx="754.54" cy="366.58" r="90.55"/><circle class="cls-33" cx="756.02" cy="363.03" r="90.5"/><circle class="cls-33" cx="757.51" cy="359.48" r="90.46"/><circle class="cls-33" cx="758.99" cy="355.94" r="90.41"/><circle class="cls-33" cx="760.46" cy="352.39" r="90.36"/><circle class="cls-33" cx="761.93" cy="348.85" r="90.32"/><circle class="cls-33" cx="763.39" cy="345.31" r="90.27"/><circle class="cls-33" cx="764.85" cy="341.77" r="90.22"/><circle class="cls-33" cx="766.3" cy="338.24" r="90.18"/><circle class="cls-33" cx="767.74" cy="334.72" r="90.13"/><circle class="cls-34" cx="769.18" cy="331.19" r="90.08"/><circle class="cls-34" cx="770.6" cy="327.68" r="90.04"/><circle class="cls-34" cx="772.02" cy="324.17" r="89.99"/><circle class="cls-34" cx="773.44" cy="320.66" r="89.94"/><circle class="cls-34" cx="774.84" cy="317.16" r="89.9"/><circle class="cls-34" cx="776.23" cy="313.67" r="89.85"/><circle class="cls-34" cx="777.62" cy="310.19" r="89.8"/><circle class="cls-34" cx="778.99" cy="306.72" r="89.76"/><circle class="cls-35" cx="780.35" cy="303.25" r="89.71"/><circle class="cls-35" cx="781.71" cy="299.8" r="89.66"/><circle class="cls-35" cx="783.05" cy="296.35" r="89.62"/><circle class="cls-35" cx="784.38" cy="292.92" r="89.57"/><circle class="cls-35" cx="785.7" cy="289.49" r="89.52"/><circle class="cls-35" cx="787" cy="286.08" r="89.48"/><circle class="cls-35" cx="788.3" cy="282.68" r="89.43"/><circle class="cls-36" cx="789.58" cy="279.29" r="89.38"/><circle class="cls-36" cx="790.84" cy="275.91" r="89.34"/><circle class="cls-36" cx="792.1" cy="272.55" r="89.29"/><circle class="cls-36" cx="793.34" cy="269.2" r="89.24"/><circle class="cls-36" cx="794.56" cy="265.87" r="89.2"/><circle class="cls-36" cx="795.77" cy="262.55" r="89.15"/><circle class="cls-36" cx="796.96" cy="259.24" r="89.1"/><circle class="cls-36" cx="798.14" cy="255.95" r="89.06"/><circle class="cls-36" cx="799.3" cy="252.68" r="89.01"/><circle class="cls-36" cx="800.45" cy="249.42" r="88.96"/><circle class="cls-36" cx="801.58" cy="246.18" r="88.92"/><circle class="cls-36" cx="802.69" cy="242.96" r="88.87"/><circle class="cls-36" cx="803.79" cy="239.76" r="88.82"/><circle class="cls-36" cx="804.86" cy="236.57" r="88.78"/><circle class="cls-36" cx="805.92" cy="233.4" r="88.73"/><circle class="cls-36" cx="806.96" cy="230.26" r="88.68"/><circle class="cls-37" cx="807.98" cy="227.13" r="88.64"/><circle class="cls-37" cx="808.98" cy="224.03" r="88.59"/><circle class="cls-37" cx="809.96" cy="220.94" r="88.54"/><circle class="cls-37" cx="810.92" cy="217.88" r="88.5"/><circle class="cls-37" cx="811.86" cy="214.84" r="88.45"/><circle class="cls-37" cx="812.78" cy="211.82" r="88.4"/><circle class="cls-37" cx="813.68" cy="208.82" r="88.36"/><circle class="cls-37" cx="814.56" cy="205.85" r="88.31"/><circle class="cls-37" cx="815.41" cy="202.9" r="88.26"/><circle class="cls-37" cx="816.24" cy="199.98" r="88.22"/><circle class="cls-37" cx="817.05" cy="197.08" r="88.17"/><circle class="cls-37" cx="817.84" cy="194.2" r="88.12"/><circle class="cls-37" cx="818.6" cy="191.36" r="88.08"/><circle class="cls-37" cx="819.33" cy="188.53" r="88.03"/><circle class="cls-37" cx="820.05" cy="185.74" r="87.98"/><circle class="cls-38" cx="820.74" cy="182.97" r="87.94"/><circle class="cls-38" cx="821.4" cy="180.23" r="87.89"/><circle class="cls-38" cx="822.04" cy="177.52" r="87.84"/><circle class="cls-38" cx="822.65" cy="174.84" r="87.8"/><circle class="cls-38" cx="823.23" cy="172.19" r="87.75"/><circle class="cls-38" cx="823.79" cy="169.56" r="87.7"/><circle class="cls-38" cx="824.32" cy="166.97" r="87.66"/><circle class="cls-38" cx="824.82" cy="164.41" r="87.61"/><circle class="cls-38" cx="825.3" cy="161.88" r="87.56"/><circle class="cls-38" cx="825.75" cy="159.38" r="87.52"/><circle class="cls-38" cx="826.17" cy="156.91" r="87.47"/><circle class="cls-38" cx="826.56" cy="154.48" r="87.43"/><circle class="cls-38" cx="826.92" cy="152.07" r="87.38"/><circle class="cls-38" cx="827.25" cy="149.71" r="87.33"/><circle class="cls-38" cx="827.55" cy="147.37" r="87.29"/><circle class="cls-38" cx="827.82" cy="145.07" r="87.24"/><circle class="cls-39" cx="828.06" cy="142.81" r="87.19"/><circle class="cls-40" cx="828.27" cy="140.58" r="87.15"/><circle class="cls-40" cx="828.44" cy="138.39" r="87.1"/><circle class="cls-40" cx="828.59" cy="136.24" r="87.05"/><circle class="cls-40" cx="828.7" cy="134.12" r="87.01"/><circle class="cls-40" cx="828.78" cy="132.04" r="86.96"/><circle class="cls-40" cx="828.82" cy="129.99" r="86.91"/><circle class="cls-40" cx="828.84" cy="127.99" r="86.87"/><circle class="cls-40" cx="828.81" cy="126.02" r="86.82"/><circle class="cls-40" cx="828.76" cy="124.1" r="86.77"/><circle class="cls-40" cx="828.67" cy="122.21" r="86.73"/><circle class="cls-40" cx="828.54" cy="120.37" r="86.68"/><circle class="cls-40" cx="828.38" cy="118.56" r="86.63"/><circle class="cls-40" cx="828.18" cy="116.8" r="86.59"/><circle class="cls-40" cx="827.95" cy="115.08" r="86.54"/><circle class="cls-40" cx="827.68" cy="113.4" r="86.49"/><circle class="cls-41" cx="827.37" cy="111.77" r="86.45"/><circle class="cls-41" cx="827.03" cy="110.17" r="86.4"/><circle class="cls-41" cx="826.64" cy="108.63" r="86.35"/><circle class="cls-41" cx="826.22" cy="107.12" r="86.31"/><circle class="cls-41" cx="825.77" cy="105.66" r="86.26"/><circle class="cls-41" cx="825.27" cy="104.25" r="86.21"/><circle class="cls-41" cx="824.73" cy="102.88" r="86.17"/><circle class="cls-42" cx="824.15" cy="101.56" r="86.12"/><circle class="cls-42" cx="823.54" cy="100.29" r="86.07"/><circle class="cls-42" cx="822.88" cy="99.06" r="86.03"/><circle class="cls-42" cx="822.18" cy="97.88" r="85.98"/><circle class="cls-42" cx="821.44" cy="96.75" r="85.93"/><circle class="cls-42" cx="820.66" cy="95.66" r="85.89"/><circle class="cls-42" cx="819.84" cy="94.63" r="85.84"/><circle class="cls-42" cx="818.97" cy="93.65" r="85.79"/><circle class="cls-42" cx="818.07" cy="92.71" r="85.75"/><circle class="cls-43" cx="817.11" cy="91.83" r="85.7"/><circle class="cls-43" cx="816.12" cy="91" r="85.65"/><circle class="cls-43" cx="815.08" cy="90.22" r="85.61"/><circle class="cls-43" cx="814" cy="89.49" r="85.56"/><circle class="cls-43" cx="812.87" cy="88.82" r="85.51"/><circle class="cls-43" cx="811.7" cy="88.19" r="85.47"/><circle class="cls-43" cx="810.48" cy="87.63" r="85.42"/><circle class="cls-43" cx="809.22" cy="87.11" r="85.37"/><circle class="cls-43" cx="807.91" cy="86.65" r="85.33"/><circle class="cls-43" cx="806.56" cy="86.25" r="85.28"/><circle class="cls-43" cx="805.15" cy="85.9" r="85.23"/><circle class="cls-43" cx="803.7" cy="85.6" r="85.19"/><circle class="cls-43" cx="802.2" cy="85.37" r="85.14"/><circle class="cls-43" cx="800.66" cy="85.19" r="85.09"/><circle class="cls-43" cx="799.06" cy="85.07" r="85.05"/><circle class="cls-43" cx="797.42" cy="85" r="85"/><circle class="cls-43" cx="795.73" cy="85" r="84.95"/><circle class="cls-44" cx="793.99" cy="85.05" r="84.91"/><circle class="cls-44" cx="792.2" cy="85.16" r="84.86"/><circle class="cls-44" cx="790.3" cy="85.34" r="84.81"/><circle class="cls-44" cx="788.11" cy="85.61" r="84.77"/><circle class="cls-44" cx="785.92" cy="85.94" r="84.72"/><circle class="cls-44" cx="783.74" cy="86.34" r="84.67"/><circle class="cls-44" cx="781.57" cy="86.79" r="84.63"/><circle class="cls-44" cx="779.4" cy="87.31" r="84.58"/><circle class="cls-45" cx="777.23" cy="87.89" r="84.53"/><circle class="cls-45" cx="775.07" cy="88.53" r="84.49"/><circle class="cls-45" cx="772.92" cy="89.22" r="84.44"/><circle class="cls-45" cx="770.77" cy="89.98" r="84.39"/><circle class="cls-45" cx="768.62" cy="90.79" r="84.35"/><circle class="cls-45" cx="766.49" cy="91.66" r="84.3"/><circle class="cls-45" cx="764.35" cy="92.58" r="84.25"/><circle class="cls-45" cx="762.23" cy="93.56" r="84.21"/><circle class="cls-46" cx="760.11" cy="94.6" r="84.16"/><circle class="cls-46" cx="757.99" cy="95.69" r="84.12"/><circle class="cls-46" cx="755.88" cy="96.83" r="84.07"/><circle class="cls-46" cx="753.78" cy="98.03" r="84.02"/><circle class="cls-46" cx="751.68" cy="99.27" r="83.98"/><circle class="cls-46" cx="749.59" cy="100.57" r="83.93"/><circle class="cls-46" cx="747.5" cy="101.92" r="83.88"/><circle class="cls-46" cx="745.42" cy="103.32" r="83.84"/><circle class="cls-46" cx="743.35" cy="104.77" r="83.79"/><circle class="cls-46" cx="741.28" cy="106.27" r="83.74"/><circle class="cls-46" cx="739.22" cy="107.82" r="83.7"/><circle class="cls-46" cx="737.16" cy="109.41" r="83.65"/><circle class="cls-46" cx="735.11" cy="111.05" r="83.6"/><circle class="cls-46" cx="733.07" cy="112.74" r="83.56"/><circle class="cls-46" cx="731.03" cy="114.47" r="83.51"/><circle class="cls-46" cx="729" cy="116.25" r="83.46"/><circle class="cls-46" cx="726.97" cy="118.07" r="83.42"/><circle class="cls-47" cx="724.96" cy="119.93" r="83.37"/><circle class="cls-47" cx="722.94" cy="121.84" r="83.32"/><circle class="cls-47" cx="720.94" cy="123.79" r="83.28"/><circle class="cls-47" cx="718.94" cy="125.78" r="83.23"/><circle class="cls-47" cx="716.94" cy="127.81" r="83.18"/><circle class="cls-47" cx="714.96" cy="129.88" r="83.14"/><circle class="cls-47" cx="712.98" cy="131.99" r="83.09"/><circle class="cls-47" cx="711" cy="134.13" r="83.04"/><circle class="cls-47" cx="709.04" cy="136.32" r="83"/><circle class="cls-47" cx="707.07" cy="138.54" r="82.95"/><circle class="cls-47" cx="705.12" cy="140.8" r="82.9"/><circle class="cls-47" cx="703.17" cy="143.1" r="82.86"/><circle class="cls-47" cx="701.23" cy="145.43" r="82.81"/><circle class="cls-47" cx="699.3" cy="147.8" r="82.76"/><circle class="cls-47" cx="697.37" cy="150.2" r="82.72"/><circle class="cls-47" cx="695.45" cy="152.63" r="82.67"/><circle class="cls-48" cx="693.53" cy="155.09" r="82.62"/><circle class="cls-48" cx="691.63" cy="157.59" r="82.58"/><circle class="cls-48" cx="689.73" cy="160.12" r="82.53"/><circle class="cls-48" cx="687.83" cy="162.68" r="82.48"/><circle class="cls-48" cx="685.95" cy="165.26" r="82.44"/><circle class="cls-48" cx="684.07" cy="167.88" r="82.39"/><circle class="cls-48" cx="682.19" cy="170.53" r="82.34"/><circle class="cls-48" cx="680.33" cy="173.2" r="82.3"/><circle class="cls-48" cx="678.47" cy="175.9" r="82.25"/><circle class="cls-48" cx="676.62" cy="178.63" r="82.2"/><circle class="cls-48" cx="674.77" cy="181.38" r="82.16"/><circle class="cls-48" cx="672.94" cy="184.16" r="82.11"/><circle class="cls-48" cx="671.11" cy="186.96" r="82.06"/><circle class="cls-48" cx="669.28" cy="189.79" r="82.02"/><circle class="cls-48" cx="667.47" cy="192.64" r="81.97"/><circle class="cls-48" cx="665.66" cy="195.51" r="81.92"/><circle class="cls-49" cx="663.86" cy="198.4" r="81.88"/><circle class="cls-50" cx="662.06" cy="201.31" r="81.83"/><circle class="cls-50" cx="660.28" cy="204.25" r="81.78"/><circle class="cls-50" cx="658.5" cy="207.2" r="81.74"/><circle class="cls-50" cx="656.73" cy="210.17" r="81.69"/><circle class="cls-50" cx="654.96" cy="213.17" r="81.64"/><circle class="cls-50" cx="653.21" cy="216.17" r="81.6"/><circle class="cls-50" cx="651.46" cy="219.2" r="81.55"/><circle class="cls-50" cx="649.72" cy="222.24" r="81.5"/><circle class="cls-50" cx="647.98" cy="225.3" r="81.46"/><circle class="cls-50" cx="646.26" cy="228.37" r="81.41"/><circle class="cls-50" cx="644.54" cy="231.46" r="81.36"/><circle class="cls-50" cx="642.83" cy="234.56" r="81.32"/><circle class="cls-50" cx="641.13" cy="237.67" r="81.27"/><circle class="cls-50" cx="639.43" cy="240.8" r="81.22"/><circle class="cls-50" cx="637.74" cy="243.93" r="81.18"/><circle class="cls-50" cx="636.06" cy="247.08" r="81.13"/><circle class="cls-51" cx="634.39" cy="250.24" r="81.08"/><circle class="cls-51" cx="632.73" cy="253.41" r="81.04"/><circle class="cls-51" cx="631.07" cy="256.58" r="80.99"/><circle class="cls-51" cx="629.43" cy="259.77" r="80.94"/><circle class="cls-52" cx="627.79" cy="262.96" r="80.9"/><circle class="cls-52" cx="626.15" cy="266.16" r="80.85"/><circle class="cls-52" cx="624.53" cy="269.36" r="80.81"/><circle class="cls-52" cx="622.91" cy="272.57" r="80.76"/><circle class="cls-52" cx="621.31" cy="275.79" r="80.71"/><circle class="cls-52" cx="619.71" cy="279" r="80.67"/><circle class="cls-52" cx="618.12" cy="282.23" r="80.62"/><circle class="cls-52" cx="616.53" cy="285.45" r="80.57"/><circle class="cls-52" cx="614.96" cy="288.68" r="80.53"/><circle class="cls-52" cx="613.39" cy="291.91" r="80.48"/><circle class="cls-52" cx="611.84" cy="295.14" r="80.43"/><circle class="cls-52" cx="610.29" cy="298.37" r="80.39"/><circle class="cls-52" cx="608.75" cy="301.59" r="80.34"/><circle class="cls-53" cx="607.21" cy="304.82" r="80.29"/><circle class="cls-53" cx="605.69" cy="308.05" r="80.25"/><circle class="cls-53" cx="604.17" cy="311.27" r="80.2"/><circle class="cls-53" cx="602.67" cy="314.49" r="80.15"/><circle class="cls-53" cx="601.17" cy="317.7" r="80.11"/><circle class="cls-53" cx="599.68" cy="320.91" r="80.06"/><circle class="cls-53" cx="598.2" cy="324.12" r="80.01"/><circle class="cls-53" cx="596.72" cy="327.32" r="79.97"/><circle class="cls-53" cx="595.26" cy="330.51" r="79.92"/><circle class="cls-53" cx="593.8" cy="333.69" r="79.87"/><circle class="cls-53" cx="592.36" cy="336.87" r="79.83"/><circle class="cls-53" cx="590.92" cy="340.04" r="79.78"/><circle class="cls-53" cx="589.49" cy="343.19" r="79.73"/><circle class="cls-53" cx="588.07" cy="346.34" r="79.69"/><circle class="cls-53" cx="586.66" cy="349.48" r="79.64"/><circle class="cls-53" cx="585.26" cy="352.61" r="79.59"/><circle class="cls-53" cx="583.86" cy="355.72" r="79.55"/><circle class="cls-54" cx="582.48" cy="358.82" r="79.5"/><circle class="cls-54" cx="581.11" cy="361.91" r="79.45"/><circle class="cls-54" cx="579.74" cy="364.98" r="79.41"/><circle class="cls-54" cx="578.38" cy="368.04" r="79.36"/><circle class="cls-54" cx="577.03" cy="371.08" r="79.31"/><circle class="cls-55" cx="575.7" cy="374.11" r="79.27"/><circle class="cls-55" cx="574.37" cy="377.12" r="79.22"/><circle class="cls-55" cx="573.05" cy="380.11" r="79.17"/><circle class="cls-55" cx="571.73" cy="383.08" r="79.13"/><circle class="cls-55" cx="570.43" cy="386.04" r="79.08"/><circle class="cls-55" cx="569.14" cy="388.97" r="79.03"/><circle class="cls-55" cx="567.86" cy="391.89" r="78.99"/><circle class="cls-55" cx="566.58" cy="394.78" r="78.94"/><circle class="cls-55" cx="565.32" cy="397.66" r="78.89"/><circle class="cls-55" cx="564.06" cy="400.51" r="78.85"/><circle class="cls-55" cx="562.82" cy="403.33" r="78.8"/><circle class="cls-55" cx="561.58" cy="406.14" r="78.75"/><circle class="cls-56" cx="560.36" cy="408.92" r="78.71"/><circle class="cls-56" cx="559.14" cy="411.67" r="78.66"/><circle class="cls-56" cx="557.93" cy="414.4" r="78.61"/><circle class="cls-56" cx="556.74" cy="417.1" r="78.57"/><circle class="cls-56" cx="555.55" cy="419.77" r="78.52"/><circle class="cls-56" cx="554.37" cy="422.42" r="78.47"/><circle class="cls-56" cx="553.2" cy="425.04" r="78.43"/><circle class="cls-56" cx="552.04" cy="427.63" r="78.38"/><circle class="cls-56" cx="550.9" cy="430.19" r="78.33"/><circle class="cls-56" cx="549.76" cy="432.72" r="78.29"/><circle class="cls-56" cx="548.63" cy="435.22" r="78.24"/><circle class="cls-56" cx="547.51" cy="437.68" r="78.19"/><circle class="cls-56" cx="546.4" cy="440.12" r="78.15"/><circle class="cls-56" cx="545.3" cy="442.52" r="78.1"/><circle class="cls-56" cx="544.21" cy="444.89" r="78.05"/><circle class="cls-56" cx="543.13" cy="447.22" r="78.01"/><circle class="cls-56" cx="542.06" cy="449.52" r="77.96"/><circle class="cls-57" cx="541" cy="451.78" r="77.91"/><circle class="cls-57" cx="539.96" cy="454" r="77.87"/><circle class="cls-57" cx="538.92" cy="456.19" r="77.82"/><circle class="cls-57" cx="537.89" cy="458.34" r="77.77"/><circle class="cls-57" cx="536.87" cy="460.45" r="77.73"/><circle class="cls-57" cx="535.86" cy="462.53" r="77.68"/><circle class="cls-57" cx="534.87" cy="464.56" r="77.63"/><circle class="cls-57" cx="533.88" cy="466.55" r="77.59"/><circle class="cls-57" cx="532.9" cy="468.5" r="77.54"/><circle class="cls-57" cx="531.94" cy="470.41" r="77.5"/><circle class="cls-57" cx="530.98" cy="472.28" r="77.45"/><circle class="cls-57" cx="530.04" cy="474.1" r="77.4"/><circle class="cls-57" cx="529.1" cy="475.88" r="77.36"/><circle class="cls-57" cx="528.18" cy="477.61" r="77.31"/><circle class="cls-57" cx="527.26" cy="479.3" r="77.26"/><circle class="cls-57" cx="526.36" cy="480.94" r="77.22"/><circle class="cls-57" cx="525.47" cy="482.54" r="77.17"/><circle class="cls-58" cx="524.59" cy="484.09" r="77.12"/><circle class="cls-58" cx="523.71" cy="485.59" r="77.08"/><circle class="cls-58" cx="522.85" cy="487.04" r="77.03"/><circle class="cls-58" cx="522" cy="488.44" r="76.98"/><circle class="cls-58" cx="521.17" cy="489.8" r="76.94"/><circle class="cls-58" cx="520.34" cy="491.1" r="76.89"/><circle class="cls-58" cx="519.52" cy="492.35" r="76.84"/><circle class="cls-58" cx="518.71" cy="493.55" r="76.8"/><circle class="cls-59" cx="517.92" cy="494.69" r="76.75"/><circle class="cls-59" cx="517.13" cy="495.79" r="76.7"/><circle class="cls-59" cx="516.36" cy="496.82" r="76.66"/><circle class="cls-59" cx="515.6" cy="497.81" r="76.61"/><circle class="cls-59" cx="514.85" cy="498.74" r="76.56"/><circle class="cls-59" cx="514.11" cy="499.61" r="76.52"/><circle class="cls-60" cx="513.38" cy="500.42" r="76.47"/><circle class="cls-60" cx="512.66" cy="501.18" r="76.42"/><circle class="cls-60" cx="511.96" cy="501.88" r="76.38"/><circle class="cls-61" cx="511.26" cy="502.52" r="76.33"/><circle class="cls-61" cx="510.58" cy="503.1" r="76.28"/><circle class="cls-61" cx="509.9" cy="503.62" r="76.24"/><circle class="cls-61" cx="509.24" cy="504.08" r="76.19"/><circle class="cls-61" cx="508.59" cy="504.48" r="76.14"/><circle class="cls-61" cx="507.95" cy="504.82" r="76.1"/><circle class="cls-61" cx="507.33" cy="505.09" r="76.05"/><circle class="cls-61" cx="506.69" cy="505.31" r="76"/><circle class="cls-61" cx="505.85" cy="505.49" r="75.96"/><circle class="cls-61" cx="505.04" cy="505.55" r="75.91"/><circle class="cls-61" cx="504.24" cy="505.5" r="75.86"/><circle class="cls-61" cx="503.46" cy="505.34" r="75.82"/><circle class="cls-61" cx="502.7" cy="505.07" r="75.77"/><circle class="cls-61" cx="501.95" cy="504.68" r="75.72"/><circle class="cls-61" cx="501.22" cy="504.19" r="75.68"/><circle class="cls-61" cx="500.51" cy="503.58" r="75.63"/><circle class="cls-61" cx="499.81" cy="502.88" r="75.58"/><circle class="cls-62" cx="499.13" cy="502.07" r="75.54"/><circle class="cls-62" cx="498.47" cy="501.15" r="75.49"/><circle class="cls-62" cx="497.81" cy="500.14" r="75.44"/><circle class="cls-62" cx="497.18" cy="499.03" r="75.4"/><circle class="cls-62" cx="496.55" cy="497.82" r="75.35"/><circle class="cls-62" cx="495.94" cy="496.52" r="75.3"/><circle class="cls-62" cx="495.35" cy="495.13" r="75.26"/><circle class="cls-62" cx="494.76" cy="493.64" r="75.21"/><circle class="cls-62" cx="494.19" cy="492.06" r="75.16"/><circle class="cls-62" cx="493.64" cy="490.4" r="75.12"/><circle class="cls-62" cx="493.09" cy="488.65" r="75.07"/><circle class="cls-62" cx="492.55" cy="486.81" r="75.02"/><circle class="cls-62" cx="492.03" cy="484.89" r="74.98"/><circle class="cls-62" cx="491.51" cy="482.89" r="74.93"/><circle class="cls-62" cx="491.01" cy="480.81" r="74.88"/><circle class="cls-62" cx="490.52" cy="478.65" r="74.84"/><circle class="cls-62" cx="490.03" cy="476.42" r="74.79"/><circle class="cls-62" cx="489.56" cy="474.11" r="74.74"/><circle class="cls-63" cx="489.09" cy="471.73" r="74.7"/><circle class="cls-63" cx="488.64" cy="469.28" r="74.65"/><circle class="cls-63" cx="488.19" cy="466.76" r="74.6"/><circle class="cls-63" cx="487.75" cy="464.17" r="74.56"/><circle class="cls-63" cx="487.31" cy="461.52" r="74.51"/><circle class="cls-63" cx="486.89" cy="458.8" r="74.46"/><circle class="cls-63" cx="486.47" cy="456.02" r="74.42"/><circle class="cls-63" cx="486.05" cy="453.18" r="74.37"/><circle class="cls-63" cx="485.64" cy="450.28" r="74.32"/><circle class="cls-63" cx="485.24" cy="447.32" r="74.28"/><circle class="cls-64" cx="484.84" cy="444.31" r="74.23"/><circle class="cls-64" cx="484.45" cy="441.24" r="74.19"/><circle class="cls-64" cx="484.06" cy="438.12" r="74.14"/><circle class="cls-64" cx="483.68" cy="434.95" r="74.09"/><circle class="cls-64" cx="483.3" cy="431.73" r="74.05"/><circle class="cls-64" cx="482.92" cy="428.47" r="74"/><circle class="cls-64" cx="482.55" cy="425.16" r="73.95"/><circle class="cls-65" cx="482.18" cy="421.81" r="73.91"/><circle class="cls-65" cx="481.81" cy="418.41" r="73.86"/><circle class="cls-65" cx="481.44" cy="414.98" r="73.81"/><circle class="cls-65" cx="481.08" cy="411.5" r="73.77"/><circle class="cls-65" cx="480.71" cy="407.99" r="73.72"/><circle class="cls-65" cx="480.35" cy="404.45" r="73.67"/><circle class="cls-65" cx="479.98" cy="400.87" r="73.63"/><circle class="cls-65" cx="479.62" cy="397.26" r="73.58"/><circle class="cls-65" cx="479.26" cy="393.62" r="73.53"/><circle class="cls-65" cx="478.89" cy="389.95" r="73.49"/><circle class="cls-65" cx="478.53" cy="386.26" r="73.44"/><circle class="cls-65" cx="478.16" cy="382.54" r="73.39"/><circle class="cls-65" cx="477.79" cy="378.8" r="73.35"/><circle class="cls-65" cx="477.42" cy="375.04" r="73.3"/><circle class="cls-65" cx="477.05" cy="371.26" r="73.25"/><circle class="cls-65" cx="476.67" cy="367.46" r="73.21"/><circle class="cls-65" cx="476.29" cy="363.64" r="73.16"/><circle class="cls-65" cx="475.91" cy="359.81" r="73.11"/><circle class="cls-66" cx="475.52" cy="355.97" r="73.07"/><circle class="cls-66" cx="475.13" cy="352.12" r="73.02"/><circle class="cls-66" cx="474.74" cy="348.26" r="72.97"/><circle class="cls-66" cx="474.33" cy="344.39" r="72.93"/><circle class="cls-66" cx="473.93" cy="340.51" r="72.88"/><circle class="cls-66" cx="473.51" cy="336.63" r="72.83"/><circle class="cls-66" cx="473.1" cy="332.75" r="72.79"/><circle class="cls-66" cx="472.67" cy="328.87" r="72.74"/><circle class="cls-66" cx="472.24" cy="324.98" r="72.69"/><circle class="cls-66" cx="471.8" cy="321.11" r="72.65"/><circle class="cls-66" cx="471.35" cy="317.23" r="72.6"/><circle class="cls-66" cx="470.9" cy="313.36" r="72.55"/><circle class="cls-66" cx="470.43" cy="309.5" r="72.51"/><circle class="cls-66" cx="469.96" cy="305.65" r="72.46"/><circle class="cls-66" cx="469.48" cy="301.82" r="72.41"/><circle class="cls-66" cx="468.99" cy="297.99" r="72.37"/><circle class="cls-66" cx="468.49" cy="294.18" r="72.32"/><circle class="cls-66" cx="467.97" cy="290.39" r="72.27"/><circle class="cls-67" cx="467.45" cy="286.61" r="72.23"/><circle class="cls-67" cx="466.92" cy="282.86" r="72.18"/><circle class="cls-67" cx="466.38" cy="279.12" r="72.13"/><circle class="cls-67" cx="465.82" cy="275.41" r="72.09"/><circle class="cls-67" cx="465.25" cy="271.73" r="72.04"/><circle class="cls-67" cx="464.67" cy="268.07" r="71.99"/><circle class="cls-67" cx="464.08" cy="264.44" r="71.95"/><circle class="cls-67" cx="463.47" cy="260.84" r="71.9"/><circle class="cls-67" cx="462.85" cy="257.27" r="71.85"/><circle class="cls-67" cx="462.22" cy="253.74" r="71.81"/><circle class="cls-67" cx="461.57" cy="250.24" r="71.76"/><circle class="cls-67" cx="460.91" cy="246.78" r="71.71"/><circle class="cls-67" cx="460.23" cy="243.35" r="71.67"/><circle class="cls-68" cx="459.53" cy="239.97" r="71.62"/><circle class="cls-68" cx="458.83" cy="236.63" r="71.57"/><circle class="cls-68" cx="458.1" cy="233.34" r="71.53"/><circle class="cls-68" cx="457.36" cy="230.09" r="71.48"/><circle class="cls-68" cx="456.6" cy="226.89" r="71.43"/><circle class="cls-69" cx="455.82" cy="223.73" r="71.39"/><circle class="cls-69" cx="455.03" cy="220.63" r="71.34"/><circle class="cls-69" cx="454.22" cy="217.58" r="71.29"/><circle class="cls-69" cx="453.39" cy="214.59" r="71.25"/><circle class="cls-69" cx="452.54" cy="211.65" r="71.2"/><circle class="cls-69" cx="451.67" cy="208.77" r="71.15"/><circle class="cls-69" cx="450.79" cy="205.94" r="71.11"/><circle class="cls-69" cx="449.88" cy="203.18" r="71.06"/><circle class="cls-69" cx="448.95" cy="200.49" r="71.01"/><circle class="cls-69" cx="448.01" cy="197.85" r="70.97"/><circle class="cls-69" cx="447.04" cy="195.29" r="70.92"/><circle class="cls-69" cx="446.05" cy="192.79" r="70.87"/><circle class="cls-69" cx="445.04" cy="190.36" r="70.83"/><circle class="cls-69" cx="444" cy="188" r="70.78"/><circle class="cls-69" cx="442.95" cy="185.72" r="70.74"/><circle class="cls-69" cx="441.87" cy="183.51" r="70.69"/><circle class="cls-69" cx="440.77" cy="181.37" r="70.64"/><circle class="cls-69" cx="439.64" cy="179.32" r="70.6"/><circle class="cls-70" cx="438.49" cy="177.34" r="70.55"/><circle class="cls-70" cx="437.32" cy="175.45" r="70.5"/><circle class="cls-70" cx="436.12" cy="173.64" r="70.46"/><circle class="cls-70" cx="434.9" cy="171.92" r="70.41"/><circle class="cls-70" cx="433.65" cy="170.28" r="70.36"/><circle class="cls-70" cx="432.38" cy="168.73" r="70.32"/><circle class="cls-70" cx="431.08" cy="167.28" r="70.27"/><circle class="cls-70" cx="429.75" cy="165.91" r="70.22"/><circle class="cls-70" cx="428.4" cy="164.64" r="70.18"/><circle class="cls-70" cx="427.02" cy="163.46" r="70.13"/><circle class="cls-70" cx="425.61" cy="162.38" r="70.08"/><circle class="cls-70" cx="424.18" cy="161.4" r="70.04"/><circle class="cls-70" cx="422.72" cy="160.52" r="69.99"/><circle class="cls-70" cx="421.22" cy="159.74" r="69.94"/><circle class="cls-70" cx="419.7" cy="159.07" r="69.9"/><circle class="cls-70" cx="418.15" cy="158.5" r="69.85"/><circle class="cls-70" cx="416.57" cy="158.04" r="69.8"/><circle class="cls-70" cx="414.96" cy="157.69" r="69.76"/><circle class="cls-71" cx="413.32" cy="157.45" r="69.71"/><circle class="cls-71" cx="411.65" cy="157.32" r="69.66"/><circle class="cls-71" cx="410.2" cy="157.31" r="69.62"/><circle class="cls-71" cx="409.14" cy="157.36" r="69.57"/><circle class="cls-71" cx="408.05" cy="157.47" r="69.52"/><circle class="cls-71" cx="406.94" cy="157.64" r="69.48"/><circle class="cls-71" cx="405.8" cy="157.87" r="69.43"/><circle class="cls-71" cx="404.65" cy="158.16" r="69.38"/><circle class="cls-71" cx="403.47" cy="158.5" r="69.34"/><circle class="cls-71" cx="402.27" cy="158.9" r="69.29"/><circle class="cls-71" cx="401.05" cy="159.36" r="69.24"/><circle class="cls-71" cx="399.8" cy="159.87" r="69.2"/><circle class="cls-71" cx="398.54" cy="160.44" r="69.15"/><circle class="cls-71" cx="397.25" cy="161.06" r="69.1"/><circle class="cls-71" cx="395.95" cy="161.73" r="69.06"/><circle class="cls-71" cx="394.62" cy="162.46" r="69.01"/><circle class="cls-72" cx="393.27" cy="163.24" r="68.96"/><circle class="cls-72" cx="391.91" cy="164.07" r="68.92"/><circle class="cls-72" cx="390.52" cy="164.95" r="68.87"/><circle class="cls-73" cx="389.11" cy="165.89" r="68.82"/><circle class="cls-73" cx="387.69" cy="166.88" r="68.78"/><circle class="cls-73" cx="386.24" cy="167.91" r="68.73"/><circle class="cls-73" cx="384.78" cy="169" r="68.68"/><circle class="cls-73" cx="383.3" cy="170.13" r="68.64"/><circle class="cls-73" cx="381.8" cy="171.31" r="68.59"/><circle class="cls-73" cx="380.28" cy="172.54" r="68.54"/><circle class="cls-73" cx="378.75" cy="173.82" r="68.5"/><circle class="cls-73" cx="377.2" cy="175.15" r="68.45"/><circle class="cls-73" cx="375.63" cy="176.52" r="68.4"/><circle class="cls-73" cx="374.04" cy="177.94" r="68.36"/><circle class="cls-73" cx="372.44" cy="179.4" r="68.31"/><circle class="cls-73" cx="370.82" cy="180.9" r="68.26"/><circle class="cls-73" cx="369.19" cy="182.45" r="68.22"/><circle class="cls-73" cx="367.53" cy="184.05" r="68.17"/><circle class="cls-73" cx="365.87" cy="185.69" r="68.12"/><circle class="cls-73" cx="364.19" cy="187.37" r="68.08"/><circle class="cls-73" cx="362.49" cy="189.09" r="68.03"/><circle class="cls-74" cx="360.78" cy="190.85" r="67.98"/><circle class="cls-74" cx="359.05" cy="192.66" r="67.94"/><circle class="cls-74" cx="357.31" cy="194.5" r="67.89"/><circle class="cls-74" cx="355.55" cy="196.39" r="67.84"/><circle class="cls-74" cx="353.79" cy="198.31" r="67.8"/><circle class="cls-74" cx="352" cy="200.27" r="67.75"/><circle class="cls-74" cx="350.21" cy="202.27" r="67.7"/><circle class="cls-74" cx="348.4" cy="204.31" r="67.66"/><circle class="cls-74" cx="346.58" cy="206.39" r="67.61"/><circle class="cls-74" cx="344.74" cy="208.5" r="67.56"/><circle class="cls-74" cx="342.9" cy="210.65" r="67.52"/><circle class="cls-74" cx="341.04" cy="212.84" r="67.47"/><circle class="cls-74" cx="339.17" cy="215.05" r="67.43"/><circle class="cls-74" cx="337.28" cy="217.31" r="67.38"/><circle class="cls-74" cx="335.39" cy="219.6" r="67.33"/><circle class="cls-74" cx="333.49" cy="221.92" r="67.29"/><circle class="cls-74" cx="331.57" cy="224.27" r="67.24"/><circle class="cls-74" cx="329.64" cy="226.66" r="67.19"/><circle class="cls-74" cx="327.71" cy="229.08" r="67.15"/><circle class="cls-75" cx="325.76" cy="231.53" r="67.1"/><circle class="cls-75" cx="323.81" cy="234.01" r="67.05"/><circle class="cls-75" cx="321.84" cy="236.52" r="67.01"/><circle class="cls-75" cx="319.87" cy="239.06" r="66.96"/><circle class="cls-75" cx="317.88" cy="241.63" r="66.91"/><circle class="cls-75" cx="315.89" cy="244.22" r="66.87"/><circle class="cls-75" cx="313.89" cy="246.85" r="66.82"/><circle class="cls-75" cx="311.88" cy="249.5" r="66.77"/><circle class="cls-75" cx="309.86" cy="252.18" r="66.73"/><circle class="cls-75" cx="307.83" cy="254.89" r="66.68"/><circle class="cls-75" cx="305.8" cy="257.62" r="66.63"/><circle class="cls-75" cx="303.76" cy="260.38" r="66.59"/><circle class="cls-75" cx="301.71" cy="263.16" r="66.54"/><circle class="cls-75" cx="299.66" cy="265.97" r="66.49"/><circle class="cls-75" cx="297.6" cy="268.8" r="66.45"/><circle class="cls-75" cx="295.53" cy="271.65" r="66.4"/><circle class="cls-75" cx="293.46" cy="274.53" r="66.35"/><circle class="cls-75" cx="291.38" cy="277.43" r="66.31"/><circle class="cls-76" cx="289.3" cy="280.35" r="66.26"/><circle class="cls-77" cx="287.21" cy="283.29" r="66.21"/><circle class="cls-77" cx="285.11" cy="286.26" r="66.17"/><circle class="cls-77" cx="283.01" cy="289.24" r="66.12"/><circle class="cls-77" cx="280.91" cy="292.24" r="66.07"/><circle class="cls-77" cx="278.8" cy="295.26" r="66.03"/><circle class="cls-77" cx="276.69" cy="298.3" r="65.98"/><circle class="cls-77" cx="274.57" cy="301.36" r="65.93"/><circle class="cls-77" cx="272.46" cy="304.43" r="65.89"/><circle class="cls-77" cx="270.33" cy="307.52" r="65.84"/><circle class="cls-77" cx="268.21" cy="310.63" r="65.79"/><circle class="cls-77" cx="266.08" cy="313.75" r="65.75"/><circle class="cls-77" cx="263.95" cy="316.89" r="65.7"/><circle class="cls-77" cx="261.82" cy="320.04" r="65.65"/><circle class="cls-77" cx="259.68" cy="323.21" r="65.61"/><circle class="cls-77" cx="257.55" cy="326.39" r="65.56"/><circle class="cls-77" cx="255.41" cy="329.58" r="65.51"/><circle class="cls-77" cx="253.27" cy="332.79" r="65.47"/><circle class="cls-77" cx="251.13" cy="336.01" r="65.42"/><circle class="cls-77" cx="248.99" cy="339.24" r="65.37"/><circle class="cls-78" cx="246.85" cy="342.48" r="65.33"/><circle class="cls-78" cx="244.71" cy="345.73" r="65.28"/><circle class="cls-78" cx="242.56" cy="348.99" r="65.23"/><circle class="cls-78" cx="240.42" cy="352.26" r="65.19"/><circle class="cls-78" cx="238.28" cy="355.54" r="65.14"/><circle class="cls-78" cx="236.14" cy="358.82" r="65.09"/><circle class="cls-78" cx="234" cy="362.12" r="65.05"/><circle class="cls-78" cx="231.87" cy="365.42" r="65"/><circle class="cls-78" cx="229.73" cy="368.73" r="64.95"/><circle class="cls-78" cx="227.6" cy="372.04" r="64.91"/><circle class="cls-78" cx="225.46" cy="375.36" r="64.86"/><circle class="cls-78" cx="223.33" cy="378.69" r="64.81"/><circle class="cls-78" cx="221.21" cy="382.02" r="64.77"/><circle class="cls-78" cx="219.08" cy="385.35" r="64.72"/><circle class="cls-78" cx="216.96" cy="388.69" r="64.67"/><circle class="cls-78" cx="214.84" cy="392.03" r="64.63"/><circle class="cls-78" cx="212.73" cy="395.37" r="64.58"/><circle class="cls-78" cx="210.62" cy="398.71" r="64.53"/><circle class="cls-78" cx="208.51" cy="402.05" r="64.49"/><circle class="cls-79" cx="206.41" cy="405.4" r="64.44"/><circle class="cls-79" cx="204.31" cy="408.75" r="64.39"/><circle class="cls-79" cx="202.22" cy="412.09" r="64.35"/><circle class="cls-79" cx="200.14" cy="415.44" r="64.3"/><circle class="cls-79" cx="198.05" cy="418.78" r="64.25"/><circle class="cls-79" cx="195.98" cy="422.12" r="64.21"/><circle class="cls-79" cx="193.91" cy="425.46" r="64.16"/><circle class="cls-79" cx="191.84" cy="428.79" r="64.12"/><circle class="cls-79" cx="189.78" cy="432.12" r="64.07"/><circle class="cls-79" cx="187.73" cy="435.45" r="64.02"/><circle class="cls-79" cx="185.69" cy="438.77" r="63.98"/><circle class="cls-79" cx="183.65" cy="442.09" r="63.93"/><circle class="cls-79" cx="181.62" cy="445.4" r="63.88"/><circle class="cls-79" cx="179.6" cy="448.71" r="63.84"/><circle class="cls-79" cx="177.58" cy="452.01" r="63.79"/><circle class="cls-80" cx="175.58" cy="455.3" r="63.74"/><circle class="cls-80" cx="173.58" cy="458.58" r="63.7"/><circle class="cls-80" cx="171.59" cy="461.86" r="63.65"/><circle class="cls-80" cx="169.61" cy="465.13" r="63.6"/><circle class="cls-81" cx="167.64" cy="468.38" r="63.56"/><circle class="cls-81" cx="165.68" cy="471.63" r="63.51"/><circle class="cls-82" cx="163.72" cy="474.86" r="63.46"/><circle class="cls-82" cx="161.78" cy="478.09" r="63.42"/><circle class="cls-82" cx="159.85" cy="481.3" r="63.37"/><circle class="cls-82" cx="157.93" cy="484.5" r="63.32"/><circle class="cls-82" cx="156.02" cy="487.69" r="63.28"/><circle class="cls-82" cx="154.12" cy="490.87" r="63.23"/><circle class="cls-82" cx="152.23" cy="494.03" r="63.18"/><circle class="cls-82" cx="150.35" cy="497.18" r="63.14"/><circle class="cls-82" cx="148.48" cy="500.31" r="63.09"/><circle class="cls-82" cx="146.63" cy="503.43" r="63.04"/><circle class="cls-82" cx="144.79" cy="506.53" r="63"/><circle class="cls-82" cx="142.96" cy="509.61" r="62.95"/><circle class="cls-82" cx="141.14" cy="512.68" r="62.9"/><circle class="cls-82" cx="139.34" cy="515.73" r="62.86"/><circle class="cls-82" cx="137.55" cy="518.76" r="62.81"/><circle class="cls-82" cx="135.77" cy="521.78" r="62.76"/><circle class="cls-82" cx="134.01" cy="524.77" r="62.72"/><circle class="cls-82" cx="132.26" cy="527.74" r="62.67"/><circle class="cls-83" cx="130.52" cy="530.7" r="62.62"/><circle class="cls-83" cx="128.8" cy="533.63" r="62.58"/><circle class="cls-83" cx="127.09" cy="536.54" r="62.53"/><circle class="cls-83" cx="125.4" cy="539.43" r="62.48"/><circle class="cls-83" cx="123.73" cy="542.3" r="62.44"/><circle class="cls-83" cx="122.07" cy="545.15" r="62.39"/><circle class="cls-83" cx="120.42" cy="547.97" r="62.34"/><circle class="cls-83" cx="118.79" cy="550.77" r="62.3"/><circle class="cls-83" cx="117.18" cy="553.54" r="62.25"/><circle class="cls-83" cx="115.58" cy="556.29" r="62.2"/><circle class="cls-83" cx="114" cy="559.01" r="62.16"/><circle class="cls-83" cx="112.44" cy="561.71" r="62.11"/><circle class="cls-83" cx="110.9" cy="564.38" r="62.06"/><circle class="cls-83" cx="109.37" cy="567.02" r="62.02"/><circle class="cls-83" cx="107.86" cy="569.64" r="61.97"/><circle class="cls-83" cx="106.37" cy="572.22" r="61.92"/><circle class="cls-83" cx="104.89" cy="574.78" r="61.88"/><circle class="cls-83" cx="103.44" cy="577.31" r="61.83"/><circle class="cls-83" cx="102" cy="579.81" r="61.78"/><circle class="cls-84" cx="100.58" cy="582.28" r="61.74"/><circle class="cls-84" cx="99.18" cy="584.71" r="61.69"/><circle class="cls-84" cx="97.8" cy="587.12" r="61.64"/><circle class="cls-84" cx="96.45" cy="589.49" r="61.6"/><circle class="cls-84" cx="95.11" cy="591.83" r="61.55"/><circle class="cls-84" cx="93.79" cy="594.14" r="61.5"/><circle class="cls-84" cx="92.49" cy="596.42" r="61.46"/><circle class="cls-84" cx="91.21" cy="598.66" r="61.41"/><circle class="cls-84" cx="89.96" cy="600.86" r="61.36"/><circle class="cls-84" cx="88.72" cy="603.03" r="61.32"/><circle class="cls-84" cx="87.51" cy="605.17" r="61.27"/><circle class="cls-84" cx="86.31" cy="607.27" r="61.22"/><circle class="cls-84" cx="85.14" cy="609.33" r="61.18"/><circle class="cls-84" cx="84" cy="611.35" r="61.13"/><circle class="cls-84" cx="82.87" cy="613.34" r="61.08"/><circle class="cls-84" cx="81.77" cy="615.29" r="61.04"/><circle class="cls-84" cx="80.69" cy="617.2" r="60.99"/><circle class="cls-84" cx="79.63" cy="619.07" r="60.94"/><circle class="cls-84" cx="78.6" cy="620.9" r="60.9"/><circle class="cls-84" cx="77.59" cy="622.68" r="60.85"/><circle class="cls-85" cx="76.61" cy="624.43" r="60.81"/><circle class="cls-85" cx="75.65" cy="626.14" r="60.76"/><circle class="cls-85" cx="74.71" cy="627.8" r="60.71"/><circle class="cls-86" cx="73.8" cy="629.42" r="60.67"/><circle class="cls-86" cx="72.92" cy="631" r="60.62"/><circle class="cls-86" cx="72.06" cy="632.53" r="60.57"/><circle class="cls-86" cx="71.22" cy="634.02" r="60.53"/><circle class="cls-86" cx="70.41" cy="635.47" r="60.48"/><circle class="cls-86" cx="69.63" cy="636.87" r="60.43"/><circle class="cls-86" cx="68.87" cy="638.22" r="60.39"/><circle class="cls-86" cx="68.14" cy="639.53" r="60.34"/><circle class="cls-86" cx="67.44" cy="640.79" r="60.29"/><circle class="cls-86" cx="66.76" cy="642" r="60.25"/><circle class="cls-86" cx="66.11" cy="643.16" r="60.2"/><circle class="cls-86" cx="65.49" cy="644.28" r="60.15"/><circle class="cls-86" cx="64.9" cy="645.34" r="60.11"/><circle class="cls-86" cx="64.33" cy="646.36" r="60.06"/><circle class="cls-86" cx="63.8" cy="647.33" r="60.01"/><circle class="cls-86" cx="63.29" cy="648.24" r="59.97"/><circle class="cls-87" cx="62.81" cy="649.11" r="59.92"/><circle class="cls-87" cx="62.36" cy="649.92" r="59.87"/><circle class="cls-87" cx="61.94" cy="650.68" r="59.83"/><circle class="cls-87" cx="61.55" cy="651.38" r="59.78"/><circle class="cls-87" cx="61.18" cy="652.04" r="59.73"/><circle class="cls-87" cx="60.85" cy="652.64" r="59.69"/><circle class="cls-87" cx="60.55" cy="653.18" r="59.64"/><circle class="cls-87" cx="60.28" cy="653.67" r="59.59"/><circle class="cls-87" cx="60.04" cy="654.11" r="59.55"/><circle class="cls-88" cx="59.83" cy="654.48" r="59.5"/><circle class="cls-88" cx="59.66" cy="654.81" r="59.45"/><circle class="cls-88" cx="59.51" cy="655.07" r="59.41"/><circle class="cls-88" cx="59.4" cy="655.28" r="59.36"/><circle class="cls-88" cx="59.32" cy="655.42" r="59.31"/><circle class="cls-88" cx="59.27" cy="655.51" r="59.27"/><circle class="cls-88" cx="59.25" cy="655.54" r="59.22"/></g></g><g id="Layer_1-2" data-name="Layer 1"><path class="cls-89" d="M818.58,345.19c-1.32-14-15.62-23.84-15.62-23.84s0-19.07-6.36-26-18-7.68-24.63-10.33-4.76-17.48-17.48-27.54c-7.75-6.14-18.17-9.32-27.76-10.86-9.78-11.26-28.72-27-28.72-27s-12.28,5.28-23.9,11.82c-12.08.45-20.78,9.36-20.78,9.36s-10.85-13-20.92-11.66-19.59,11.66-28.34,14.57-16.15-5-28.86-1.59-22.24,14-31.51,23.3-13.51.27-27.28,9.54a31.15,31.15,0,0,0-13.77,24.1,29.16,29.16,0,0,0-14.57,10.59c-5.82,8.21-4.5,15.89-6.09,20.65s-6.09,7.69-19.59,23-10.33,32.84-9,40.26-1.06,9.8-7.15,23.3,6.36,30.45,6.36,30.45-2.39,2.92-1.86,10.33,5.83,24.1,13,29.66,9.27,12.19,11.12,16.95,8.48,22.25,14.57,25.95,15.09,9,25.69,12.45,8.73,10.07,17.74,17.74,15.89,11.92,35.75,19.6,29.66,5.83,44.49,3.44c4.24,5.57,21.45,8.48,30.39,7.42s28.13-8.74,35.95-11.12,21.05-.27,34.56-2.12,14.83-15.36,21.71-19.33,16.42-.8,29.66-10.33,15.1-29.4,15.1-29.4,12.18-4.76,14.3-11.39,1.59-7.67,10.32-16.68,8.74-32.31,10.07-40,7.68-14.56,11.92-27.8-2.92-33.37-6.89-44S819.91,359.22,818.58,345.19Z"/><path class="cls-90" d="M493.52,290.07A31.15,31.15,0,0,1,507.29,266c13.77-9.27,18-.26,27.28-9.54s18.8-19.86,31.51-23.3,20.13,4.5,28.86,1.59,18.28-13.24,28.34-14.56,20.92,11.65,20.92,11.65,10.33-10.59,24.1-9.27,21.18,13.77,32.84,13.77,31.51,2.12,44.22,12.18,10.86,24.9,17.48,27.54,18.27,3.45,24.63,10.33,6.35,25.95,6.35,25.95,14.31,9.8,15.63,23.84-2.38,23,1.59,33.63,11.12,30.72,6.89,44-10.6,20.13-11.92,27.81-1.33,31-10.07,40-8.2,10.06-10.32,16.68-14.3,11.39-14.3,11.39-1.86,19.86-15.1,29.39-22.77,6.36-29.66,10.33-8.21,17.48-21.72,19.33-26.74-.27-34.55,2.12-27,10.06-35.95,11.12-26.15-1.85-30.39-7.41c-14.83,2.38-24.63,4.23-44.49-3.45s-26.75-11.91-35.75-19.59-7.15-14.31-17.74-17.74-19.6-8.74-25.69-12.45-12.71-21.19-14.57-25.95-4-11.39-11.12-16.95-12.45-22.25-13-29.66,1.86-10.33,1.86-10.33-12.45-16.95-6.36-30.46,8.48-15.89,7.15-23.3-4.5-24.89,9-40.25,18-18.28,19.59-23,.27-12.45,6.09-20.66A29.16,29.16,0,0,1,493.52,290.07Z"/><path class="cls-2" d="M802.6,372.94c-3-8.07-2.59-15.28-2.17-22.25a84.23,84.23,0,0,0,.05-13.7c-.75-7.93-8.75-15.16-11.75-17.25l-3.9-2.68v-4.74c0-7.36-1.72-17.41-4-19.85-2.67-2.89-8.32-4.35-13.3-5.64a67.36,67.36,0,0,1-8-2.43c-6.68-2.68-8.94-8.95-10.93-14.48-1.82-5.09-3.71-10.34-8.8-14.36-12-9.5-32.6-10.24-38.63-10.24-8.49,0-14.88-4.16-20.51-7.83-4.56-3-8.49-5.53-13.19-6-.51,0-1-.08-1.53-.08-8.46,0-15.24,6.65-15.26,6.67l-6.93,7.07-6.41-7.56c-3-3.58-9.09-8.54-12.56-8.54a1.37,1.37,0,0,0-.29,0c-3.72.49-8.43,3.63-13,6.67-4.34,2.9-8.83,5.89-13.67,7.51a22.15,22.15,0,0,1-7,1.12,39,39,0,0,1-10.23-1.72,31.54,31.54,0,0,0-8-1.41,15.86,15.86,0,0,0-4.17.57c-9.2,2.49-17.18,10.55-24.89,18.34l-2.61,2.64c-7.22,7.21-13.57,7.32-18.2,7.4-3.34.05-5.76.1-10.42,3.24a22.11,22.11,0,0,0-9.79,16.62V297l-6.64,1.81a20.2,20.2,0,0,0-9.59,7.11c-2.66,3.76-3.09,7.38-3.54,11.21a35.67,35.67,0,0,1-1.35,7.09c-1.63,4.88-4.57,8-9.92,13.64-2.76,2.9-6.53,6.89-11.46,12.5-10.59,12-8.11,25.95-6.9,32.72,1.56,8.73-.76,13.61-4.6,21.7-.92,1.93-2,4.18-3.21,6.89-3.16,7,3,18.11,5.41,21.42l4.13,5.62-3.93,4.81a12.36,12.36,0,0,0-.33,4.59c.48,6.75,5.58,20.12,9.52,23.18,8.6,6.69,11.6,14.55,13.58,19.74l.61,1.57c6.73,17.37,10.15,20.61,10.65,21,7,4.29,14.79,8.65,23.79,11.58,9.33,3,12.67,8.39,15.35,12.7a25.6,25.6,0,0,0,5.45,6.75c7.63,6.5,13.38,10.41,33.16,18,8.79,3.4,15.74,4.92,22.54,4.92,5.09,0,10-.79,16.18-1.79l6.41-1,3.16,4.14c2,1.72,10.85,4.23,19.27,4.23a24.2,24.2,0,0,0,3-.16c5.27-.62,16.88-4.72,24.56-7.44,3.92-1.38,7.3-2.58,9.82-3.34,5-1.53,10.77-1.65,17.77-1.65h2.27a116.54,116.54,0,0,0,15.92-.78c4-.55,5.71-2.73,9.06-8,2.3-3.6,4.91-7.69,9.38-10.26,4.1-2.37,8.26-3,12.28-3.64,5.25-.82,10.21-1.59,16.62-6.2,8-5.78,10.94-18.53,11.39-22.92l.53-5.51,5.13-2c3.78-1.51,8.22-4.39,9.06-5.87.23-.72.43-1.37.61-2,1.94-6.41,3.37-9.43,11.8-18.12,4.64-4.78,6.09-20.23,6.78-27.66.28-3,.53-5.58.87-7.58.9-5.24,3.27-9.72,5.76-14.47A86,86,0,0,0,809.35,411C812.81,400.16,805.13,379.68,802.6,372.94Zm2.46,36.68a81.18,81.18,0,0,1-6.15,13.82c-2.56,4.87-5.19,9.87-6.22,15.81-.37,2.16-.62,4.78-.9,7.82-.51,5.38-2,21.41-5.54,25.05-8.64,8.91-10.61,12.44-12.88,20l-.33,1.07a27,27,0,0,1-6.69,3.89l-7.69,3-.8,8.25c-.45,4.5-3.39,15.27-9.53,19.69-5.54,4-9.57,4.61-14.68,5.41-4.24.66-9,1.4-13.84,4.19-5.42,3.12-8.48,7.9-10.93,11.73-3.23,5-4,5.66-5.87,5.91a111.48,111.48,0,0,1-15.31.74h-2.27c-7.38,0-13.48.13-19.09,1.84-2.62.8-6,2-10,3.42-7.07,2.5-18.83,6.65-23.59,7.21a21.86,21.86,0,0,1-2.48.12c-7.25,0-14.24-2-16.13-3l-4.35-5.71-9.07,1.46c-6,1-10.73,1.73-15.47,1.73-6.22,0-12.67-1.42-20.92-4.61-19.12-7.39-24.62-11.11-31.85-17.27a21.29,21.29,0,0,1-4.55-5.7c-2.91-4.68-6.9-11.08-17.79-14.62-8.37-2.72-15.71-6.81-22.4-10.87-.69-.81-3.72-4.85-9.23-19.06l-.6-1.55c-2-5.31-5.43-14.22-15-21.68-2.45-1.9-7.35-13.75-7.8-20a13,13,0,0,1,0-2.25l5.45-6.67-6.2-8.44c-2.6-3.59-6.89-12.56-4.93-16.9,1.2-2.67,2.26-4.89,3.16-6.79,3.94-8.3,6.79-14.29,5-24.44-1.16-6.49-3.32-18.54,5.84-29,4.88-5.54,8.61-9.49,11.34-12.37,5.61-5.92,9-9.49,10.93-15.32a39,39,0,0,0,1.55-8c.42-3.54.74-6.32,2.74-9.14a15.91,15.91,0,0,1,7.25-5.42l9.81-2.67V290.07a17.58,17.58,0,0,1,7.8-12.89c3.56-2.39,4.95-2.41,8-2.47,4.78-.08,12.79-.21,21.3-8.72l2.63-2.65c7.3-7.37,14.84-15,22.86-17.17a11.7,11.7,0,0,1,3-.41,27.43,27.43,0,0,1,6.8,1.26,43.67,43.67,0,0,0,11.4,1.87,26.45,26.45,0,0,0,8.41-1.35c5.43-1.81,10.17-5,14.75-8,3.84-2.56,8.18-5.46,10.87-5.93,1.47.25,6,3.37,9,6.94l9.59,11.33,10.4-10.6s5.58-5.31,12-5.31A9.94,9.94,0,0,1,667,236c3.6.34,6.94,2.52,11.16,5.27,5.86,3.82,13.15,8.56,23,8.56,11.67,0,27.21,2.44,35.84,9.27,4.08,3.23,5.67,7.66,7.35,12.35,2.09,5.79,4.93,13.72,13.49,17.14a69.64,69.64,0,0,0,8.55,2.6c4,1,9.4,2.43,11.17,4.35,1,1.45,2.76,9.38,2.78,16.81v7.09l5.85,4c3,2.07,9.28,8.22,9.82,14a82.43,82.43,0,0,1-.06,13c-.43,7.1-.92,15.14,2.44,24.11C804.8,391.61,807,403.42,805.06,409.62Z"/><path class="cls-91" d="M479.2,349.82c-8.63,9.49-13.77,23.34-12.18,34.25s4.69,18.95-.3,27.11.83,32,4,21.93,5.59-14.81,5.71-29.65-4.88-18.08,0-29.43S481.16,347.67,479.2,349.82Z"/><path class="cls-91" d="M539.82,513.58c-7.58-1.94-8.15,18.58,9,30.23S573.18,554.4,586,554.4s16.85-4.72,31.54,0,51.25,2.1,33.76-3.72-59,0-77.41-5.83S545.88,515.13,539.82,513.58Z"/><path class="cls-91" d="M786.54,420.9c4.09-12.68-1.7-20.69-3-46.87s-9.29-20.71-9.29-10.74.54,16.52,3.45,33.63-1.87,43.4,3.44,42.44S786.54,420.9,786.54,420.9Z"/><path class="cls-91" d="M667.71,248.27c-11.88,6.82-17.22,15.81-22.62,11.34s-14.66-19.29-27.51-11.34-8.9,13.16,2.37,11.34,16.57,8,31.39,7.06,17.57-3.3,21-10.32S670.81,246.49,667.71,248.27Z"/><path class="cls-2" d="M738.21,343.56c-14.3-35.22-52.7-60.64-80-69.11s-65.94.05-75.74,7.67c-4.77,3.71-36,12.19-49.79,29.66s-38.13,40.78-39.46,73.1,6.89,64.61,26.22,87.39,44,34.16,80.51,40.78,57.73.79,82.62-8.21,40.25-27.81,55.61-54.55S752.52,378.79,738.21,343.56ZM718.88,466.44c-12.71,12.71-27.83,29.13-48.48,34.16s-56.12,9.8-81,4S547.54,492.66,534,479.15s-29.13-35.22-32.58-64.88,3.45-49,13.24-68.06S542,316.29,552.05,306s45.81-23.84,45.81-23.84c9.27-5,50-5,67.79,0s51.91,42.91,59.59,55.09,20.39,45.55,17.21,67.26S731.59,453.73,718.88,466.44Z"/><path class="cls-92" d="M688.88,210.63s-27.43,11.79-39.1,22-44.43,38.63-63.43,52-34.57,24.62-48.13,36.3S497,354.56,486.44,364.12,449,397.43,449,397.43s11.38,18.87,16.26,29.89S481.56,453.8,491.73,464s19.33,13.51,31.83,30.14,17.48,28.42,34.51,51.19,28.45,30.09,29.85,30.09,30.37-31.72,40.69-40.26S662,514,675.46,501s56.18-48.24,71.23-62.55,45.54-37.54,50.83-47.28a42.77,42.77,0,0,1,13.41-14.76s-16.26-33.21-23.58-45.8-17.89-30.49-27.25-44.72S728.71,252.92,721,241.94,688.88,210.63,688.88,210.63Z"/><path class="cls-93" d="M687.4,218.76s-32.68,17.49-49.93,32.94-53.23,35.78-71.63,55.71-46.06,42.89-63.14,51.13-45.54,40.71-45.54,40.71,17.08,33.49,25.62,44,25.21,25.57,37.41,36.14,21.37,33.35,32.64,48,14.27,15.45,20.3,23.17,11.1,15,11.1,15,25.93-24.8,38.28-32.53,37-23.37,45.23-37.1,33.81-29,47.23-42.52,57.74-44.13,65.87-54.23S804,375.17,804,375.17,789,340,774.75,322.9,733.59,274.47,721,255.36,687.4,218.76,687.4,218.76Z"/><path class="cls-92" d="M588.07,553.79l-.85-.58c-.36-.26-8.94-6.25-13.6-11.59-4.39-5-25.55-33.29-30.62-47.1-4.29-11.67-13.67-20.38-24.53-30.46-1.31-1.21-2.65-2.45-4-3.71-12.46-11.68-18.41-18.27-23.06-28.89-4.35-9.95-22.4-31.21-22.58-31.42l-.78-.92.91-.79c.53-.47,53.76-46.79,62.16-54.41,7.06-6.43,28.35-22.48,45.45-35.38l10.33-7.8c9.88-7.48,20.3-17,28.66-24.65,7.3-6.67,13-11.94,16.39-14,7-4.41,48.11-32.23,48.52-32.51l.71-.48.7.51c.25.18,24.65,18.07,35.16,28.58,7,7.05,16.63,22.6,25.09,36.32,4.34,7.06,8.45,13.72,11.65,18.29,9.29,13.29,35.17,64,36.27,66.19l.58,1.12-1.14.54c-.29.13-29.11,13.75-39.77,29.49-7.09,10.48-24.32,21.83-38.16,31-8.07,5.32-15,9.91-18.52,13.28-2.78,2.69-6.76,6.92-11.36,11.82-11.49,12.22-27.21,28.95-39.17,37.43-16.34,11.59-53.36,49.09-53.73,49.47ZM471.47,399.38c3.59,4.28,18.17,21.92,22.19,31.1,4.47,10.23,10.29,16.66,22.49,28.09,1.34,1.26,2.67,2.49,4,3.71,11.09,10.29,20.66,19.17,25.16,31.39C550,506.58,570.6,534.44,575.46,540c3.64,4.17,10,8.94,12.32,10.59,5.32-5.36,38.1-38.21,53.33-49,11.76-8.34,27.39-25,38.8-37.11,4.62-4.92,8.62-9.18,11.44-11.9,3.65-3.53,10.71-8.18,18.87-13.56,13.66-9,30.67-20.22,37.49-30.3,9.93-14.67,34-27,39.61-29.78-3.93-7.68-27.09-52.71-35.53-64.79-3.24-4.62-7.36-11.32-11.73-18.41-8.39-13.61-17.89-29-24.74-35.87-9.39-9.39-30.13-24.84-34.18-27.83-5.53,3.74-41.36,28-47.88,32.07-3.15,2-9.12,7.44-16,13.77-8.41,7.68-18.87,17.24-28.84,24.8l-10.33,7.8c-17.06,12.87-38.3,28.89-45.28,35.23C525,352.81,478.57,393.2,471.47,399.38Z"/><path class="cls-94" d="M647.67,274.88a22.8,22.8,0,0,1,4.2-2.2,34.62,34.62,0,0,1,4.6-1.57,37.31,37.31,0,0,1,5.49-1.06,31.16,31.16,0,0,1,5.6-.19,19,19,0,0,1,2.57.23,19.84,19.84,0,0,1,2.28.41c.7.17,1.33.34,1.89.49s1,.38,1.41.53c.77.31,1.2.51,1.2.51s-.48,0-1.31,0l-1.46-.09c-.57,0-1.21,0-1.9,0s-1.43,0-2.22,0-1.61.06-2.46.1-1.73.12-2.62.19-1.8.17-2.7.27-1.81.24-2.7.34l-2.62.39-2.44.42-2.21.39Z"/><path class="cls-94" d="M635.21,285s1.1-.49,3.08-1.21c1-.33,2.19-.79,3.6-1.2s3-.92,4.74-1.33,3.65-.92,5.69-1.29,4.18-.8,6.42-1.09,4.57-.57,6.93-.79l7.2-.37c2.49,0,4.81.08,7.18.12l1.77.05,1.76.18,3.45.37c2.28.16,4.41.68,6.46,1s3.94.9,5.69,1.33,3.32,1,4.72,1.45,2.57,1,3.55,1.36,1.71.78,2.23,1l.76.39s-1.13-.39-3.15-1c-1-.24-2.22-.62-3.65-.91s-3-.71-4.77-1-3.65-.69-5.68-.9-4.15-.58-6.36-.68l-3.35-.24-1.71-.12-1.76,0c-2.33,0-4.8-.11-7.09,0l-7.08.28-6.84.57c-2.22.23-4.35.53-6.38.76s-3.93.6-5.7.85-3.37.62-4.81.87l-3.69.76-2.37.54Z"/><path class="cls-94" d="M493.76,403.59a17.28,17.28,0,0,1,2.24.65,43.8,43.8,0,0,1,4.46,1.91l4.23,2.12c.3.15.57.25.81.37a4,4,0,0,0,.66.27l.61.25a6.44,6.44,0,0,1-.62.24,2.59,2.59,0,0,1-.75.17,5.17,5.17,0,0,1-1,.07,6.84,6.84,0,0,1-1.17-.08,10,10,0,0,1-1.26-.25,13.68,13.68,0,0,1-2.58-1,15.52,15.52,0,0,1-4.14-2.93A9.57,9.57,0,0,1,493.76,403.59Z"/><path class="cls-94" d="M493.76,414.42s.39.15,1.07.44l2.75,1.16c1.12.5,2.46,1,3.84,1.62.71.28,1.45.54,2.18.85s1.47.63,2.24.87,1.51.54,2.25.83a22.88,22.88,0,0,0,2.2.75c.72.21,1.41.46,2.07.7l1,.34.92.24a38.25,38.25,0,0,1,4,1.26,35.34,35.34,0,0,1-4.2.12l-1,0-1-.17c-.72-.11-1.47-.23-2.24-.4a13.39,13.39,0,0,1-2.37-.57l-2.38-.8a38,38,0,0,1-4.5-2.07c-.69-.37-1.32-.8-1.93-1.18a16.23,16.23,0,0,1-1.67-1.16,21.33,21.33,0,0,1-2.32-2A8.19,8.19,0,0,1,493.76,414.42Z"/><path class="cls-94" d="M615.73,496.73a11.31,11.31,0,0,1,2-2.1,16.82,16.82,0,0,1,2.45-1.7,18.76,18.76,0,0,1,3.14-1.43,17.34,17.34,0,0,1,1.71-.47,15.14,15.14,0,0,1,1.71-.27c.57-.05,1.12,0,1.64,0s1,.14,1.46.21a10.49,10.49,0,0,1,1.19.38,4.19,4.19,0,0,1,.85.43c.45.29.68.46.68.46h-.81a6.77,6.77,0,0,0-.88,0l-1.11.1-1.27.23-1.39.32c-.48.16-1,.26-1.47.43s-1,.3-1.52.5c-2,.68-4.09,1.48-5.69,2S615.73,496.73,615.73,496.73Z"/><path class="cls-94" d="M607.6,505.28a3.34,3.34,0,0,1,.38-.55,8,8,0,0,1,1.24-1.23,7.81,7.81,0,0,1,.94-.67,8.74,8.74,0,0,1,1.13-.64c.41-.18.84-.36,1.28-.52a7,7,0,0,1,1.37-.39c.47-.09.95-.18,1.41-.24a8.13,8.13,0,0,1,1.39,0c.45,0,.88,0,1.29.08a4.35,4.35,0,0,1,1.13.24,10.47,10.47,0,0,1,2.23.87,13.17,13.17,0,0,1-2.28.53c-.32.06-.67.09-1,.19s-.75.18-1.15.25-.81.11-1.21.22-.82.19-1.23.28c-.85.12-1.65.41-2.45.55-.4.08-.76.21-1.13.29s-.73.15-1,.24c-.65.18-1.22.29-1.61.4Z"/><path class="cls-95" d="M560.6,275.48c-.27,9.68-15.06,50.15-9.1,73.64s26.19,37.53,45,36.55S636.91,376,646,356.8s-.85-59.06-11.15-62.74S560.6,275.48,560.6,275.48Z"/><path class="cls-96" d="M561.31,273.92c-4.69-2.48,2.92,28.33,0,34.16s-8.21,29.13-4.5,40.78,15.36,24.89,38.66,24.89,35.75-8.47,44.23-17.74,14.83-20.92,14.3-32.18-5.82-31.38-20.13-34.56a229.63,229.63,0,0,0-39.81-5.65C581.08,283,566.35,276.56,561.31,273.92Z"/><path class="cls-88" d="M601,367.27c-12.21,0-24.42-5.76-31.11-14.68-8.63-11.5-3.83-32.9-2.18-37.58,1.44-4.05,3-13.54,3.6-18.83l.23-2.12,2.13.12c.29,0,28.87,1.61,47.82,3.45a21.37,21.37,0,0,1,16.16,9.16c5.87,8.38,6.34,20.83,4.28,28.85-3.61,14.12-13,24-27.9,29.37a38.28,38.28,0,0,1-13,2.26Z"/><path class="cls-2" d="M573.49,296.42c-.52,4.77-2.11,14.83-3.7,19.33s-6.09,24.9,1.85,35.49,25.42,17.48,41.58,11.65,23.57-16.41,26.48-27.8.66-33.37-18.47-35.22S573.49,296.42,573.49,296.42Z"/><path class="cls-91" d="M583.69,301.26c-1.52-.92,1.39,4.37,3.18,5.76s4.63,1.19,4.9,0S584.68,301.85,583.69,301.26Z"/><path class="cls-91" d="M580.65,308c-.93,1.41-.61,4.19-.08,6.38s4.84,5.78,5.37,4.37,1.46-3.86,0-6.1S580.65,308,580.65,308Z"/><path class="cls-91" d="M577.33,321.32a4.45,4.45,0,0,0-1.54,5.56c1,2.38,4,5.11,4.27,3.84s1.58-1.26,1.12-3.84S577.33,321.32,577.33,321.32Z"/><path class="cls-91" d="M573.1,333.63c-1.53,1.59-.33,7.22,3.84,8.88s3.9-.34,4.33-1.13-2.88-3.24-4.4-4.7A39.2,39.2,0,0,0,573.1,333.63Z"/><path class="cls-91" d="M572.46,343.83c-.49,1.72-.82,2.91.64,3.9s4,4.24,4.43,2.72S572.46,343.83,572.46,343.83Z"/><path class="cls-91" d="M580.06,350.85c-.94,1-2.71,2.71,1.25,5.16s5.36,4.37,7.35,2.71-.27-1-2.72-3.63A23,23,0,0,0,580.06,350.85Z"/><path class="cls-91" d="M585.94,341c-1.06,3.58-.75,7,1.58,8.28s7.69,0,7.69,0-2.1-5.15-3.44-6.12S585.94,341,585.94,341Z"/><path class="cls-91" d="M584.13,329.86c-.64,3.77.07,4.9,2.59,6.82s7.1,4.88,6.31,1.71-1.86-7.55-3.61-7.35S584.13,329.86,584.13,329.86Z"/><path class="cls-91" d="M593.12,316.55c-1.33,2.47-.9,3,0,5.56s4.67,6.16,5.86,6.26.8-4.77,0-5.91S593.72,315.43,593.12,316.55Z"/><path class="cls-91" d="M601.57,310.19c-.6.2.72,4,2.34,4.77s7.59,5,6.79,2.38-3.45-3.25-4.6-4.7S601.57,310.19,601.57,310.19Z"/><path class="cls-91" d="M599.74,301.15c-.16,1.1-.85,3,1.68,4.44s4.84,4.76,4.68,2.4-1.43-3.55-2.19-4.75S599.74,301.15,599.74,301.15Z"/><path class="cls-91" d="M614.68,301.15c-1.39,1.69-4.57,3.29-2.39,5.27s6.77,5.83,7.66,5.1-.51-3.79-1.3-5.14S614.68,301.15,614.68,301.15Z"/><path class="cls-91" d="M622.62,302.45c-.6.39-2.38.91,0,3.93s7.41,5,7.28,3.81-1-4.86-2.57-5.21S622.62,302.45,622.62,302.45Z"/><path class="cls-91" d="M615.89,314.19c-1.22,1.17-2.8,1.81-1.41,4.87s4.78,5.76,5.47,4.7-1.5-4.95-1.7-5.58A46.12,46.12,0,0,0,615.89,314.19Z"/><path class="cls-91" d="M608.72,321.32c-1,1.39-1.79,3.17,0,4.86s3.68,6.06,5.22,3.68-2.34-5-2.39-5.87S608.72,321.32,608.72,321.32Z"/><path class="cls-91" d="M601.42,332c-1.44.8-3.71,1.83-1.68,3.7s4.75,4.81,6.37,3.93,1.14-4.06,0-4.85S601.42,332,601.42,332Z"/><path class="cls-91" d="M604.78,343.83c-2,.73-2.14,5,0,7s8.81,5.22,9.15,2.64-4-5.56-5.21-6.15S606.22,343.3,604.78,343.83Z"/><path class="cls-91" d="M613.93,337.4c-1.84.8-1.33,4.73,0,5.74s5.53,4.79,6,4.2-1.3-5.57-2.1-6.36S613.93,337.4,613.93,337.4Z"/><path class="cls-91" d="M621.42,337.4c-.59,0-1.19,2.65-.19,5s2,4.67,3.18,5,.59-2.78,0-5A16.78,16.78,0,0,0,621.42,337.4Z"/><path class="cls-91" d="M631.36,325.94a14.76,14.76,0,0,0-1.46,5.1c-.13,1.8,3.05,7.1,4.24,5.64s.79-4,0-6.82S632.06,324.94,631.36,325.94Z"/><path class="cls-91" d="M627.33,313.52c-1.91,1.86-3.4,3.3-1.67,4.66s6.58,5.28,6.73,4.21-2.49-4.34-2.49-4.34S628.13,312.74,627.33,313.52Z"/><path class="cls-91" d="M597.2,354.46c-.85.53-3.78,2.14-1.2,4.26a11.77,11.77,0,0,0,8.78,2.19c2.15-.46.13-2.06-1.54-3.15S597.2,354.46,597.2,354.46Z"/><path class="cls-97" d="M633.87,289.27a229.63,229.63,0,0,0-39.81-5.65c-13-.62-27.71-7.06-32.75-9.7-4.69-2.48,2.92,28.33,0,34.16s-8.21,29.13-4.5,40.78a34.59,34.59,0,0,0,16.58,19.75c-6.8-9.94-13.7-17.69-10.27-14.76,4.27,3.66-2.94-4.6-2.52-14.18s.73-21.63,3.1-19.95,2.71-2.49,2.8-14.13-3.43-24.9-.68-23.63,26.74,10,20.9,6.82,3.48-2,9.95.4,32.87,6.46,26.23,4,.77,0,9.49-.21a79.2,79.2,0,0,0,8.13-.67A17.84,17.84,0,0,0,633.87,289.27Z"/><path class="cls-95" d="M662,430.53c-15.19-11.85-33.63-43.29-29.63-57.23s19.52-42,45-41.26,41.52,16.25,43,25.72S662,430.53,662,430.53Z"/><path class="cls-96" d="M696.9,340.12c-11.38-.32-23.83-2.91-39.72,9.27s-20.13,29.52-14,44,16.94,25.63,25.55,35.42,16,18.81,16,18.81,10.86-15.36,23.57-22.25,24.54-21.22,27.81-37.07-2.65-31.25-11.66-37.08S703,340.29,696.9,340.12Z"/><path class="cls-88" d="M684,435.39c-2.66-5.37-10.64-20.08-15.67-23.5-.9-.61-1.9-1.23-2.94-1.89-6.78-4.26-16.07-10.09-16.32-22.69-.26-13.1,7.12-23.25,15.13-32.27,6.65-7.47,21.09-10.6,28.63-10.81l.84,0c7.2,0,11.29,2.7,15.62,5.56,1.36.9,2.77,1.82,4.31,2.69,7.44,4.17,14.77,19.48,13,33-1.53,12-9.59,22.08-22.7,28.48-9.91,4.84-15.75,21.07-15.81,21.24l-1.78,5Z"/><path class="cls-2" d="M692.93,346.48c-6.49.18-20.66,2.91-27,10.06S651.09,374,651.35,387.26,663,405.53,669.62,410,686,434.4,686,434.4s6.1-17.22,17-22.51,19.86-14.3,21.45-26.75-5.29-27-11.92-30.72S702.2,346.21,692.93,346.48Z"/><path class="cls-91" d="M699.28,351.51c-2.27,1.14-3,1-2,2.95a24.49,24.49,0,0,0,4.5,5.66c1.06.79,3.86.71,3.71-.78S700,351.16,699.28,351.51Z"/><path class="cls-91" d="M688,349.82c-1.55.38-4.75,1.77-4.48,4.64s1.89,4.46,3.33,2.74,3.61-2.64,4.18-4S688.88,349.6,688,349.82Z"/><path class="cls-91" d="M675.85,353.86c-2.27.18-4.64,2.25-5.7,4.05s-2.25,11.21.67,8.69,3.88-3,6.51-5.54,1.61-4.79,0-4.52S677.19,353.75,675.85,353.86Z"/><path class="cls-91" d="M683.51,357.76c-1.81.35-3,2.22-3.42,4.21s-1.86,5.48,0,5.06,1.95-1.36,3.42-2.68,2.53-2.34,2.27-3.29S684.15,357.64,683.51,357.76Z"/><path class="cls-91" d="M692,361.06c-1.82.79-2.68,3.68-3.26,4.61s-.74,6,0,5.7,2.6-2.92,4.06-4.31S693.2,360.54,692,361.06Z"/><path class="cls-91" d="M698.09,363.29a7.78,7.78,0,0,0-2.38,5.17c-.13,3-.53,8.87,1.19,6.88a50.44,50.44,0,0,0,4.27-5.16c1.56-2.26,2.88-2.4,1.43-4.51S699,362.36,698.09,363.29Z"/><path class="cls-91" d="M705.51,366.21c-1.72,1.45-2.39,2.38-.67,4.1s3.64,5.84,6.06,5.43,3.48-1.42,1.89-4.75-2.5-4.93-4.1-5.32A4.83,4.83,0,0,0,705.51,366.21Z"/><path class="cls-91" d="M710,356.05c-2,2-2.37,2.87-1.32,4.39s3.31,4.46,4.1,4.58,2.12.55,2-2-.48-4.13-1.23-5.21S710.75,355.29,710,356.05Z"/><path class="cls-91" d="M710.14,381.17c-2.56-.61-3.32.39-4,2.24s.39,8.08,0,10,.94.07,2.52-2.18,3.44-3.18,3.57-5.16S711,381.38,710.14,381.17Z"/><path class="cls-91" d="M718.48,378.25c-2.74,2.14-5,.83-4.37,2.74s1.2,5.74,3.31,5.08,4.11-2.44,4.51-3.87S719.68,377.33,718.48,378.25Z"/><path class="cls-91" d="M715.44,388.45c-1.41.44-3.16,3.54-3.17,4.35s-1.71,4.92,0,4.92,4.63-1.33,5.15-2.39S717.56,387.79,715.44,388.45Z"/><path class="cls-91" d="M706.83,398.91a12.17,12.17,0,0,0-3.61,4.11c-1,1.72-2.08,2.38-3,4s-2,4.5.93,3,4.84-2.38,7-4.5S708.57,397.6,706.83,398.91Z"/><path class="cls-91" d="M692.14,397.72c-1.51,2.57-2.68,6.16-3.4,6.85s1.54,2,4.19.7,3.71-2,4.64-3.5.91-4.85-.74-4.85S692.49,397.11,692.14,397.72Z"/><path class="cls-91" d="M693.4,407.91c-1.84,1-3.12.93-3.25,2.52s-3.31,5.13-.8,5.28a8.75,8.75,0,0,0,4.9-1.57l1.86-4.11S694.92,407.12,693.4,407.91Z"/><path class="cls-91" d="M683.51,409.5c-1.93,1.59-5.4.26-4.35,2.25s2.65,4.77,2.65,4.77,2.12,4,2.91,1.59.53-4.24,0-5.16S684.16,409,683.51,409.5Z"/><path class="cls-91" d="M682.49,401.38c.26-2.21.69-4.71,0-7.17s.64-5.27,2.1-4.06a7,7,0,0,1,2.73,4.06c.31,1.65,1,3.3,0,5.23S682.31,402.93,682.49,401.38Z"/><path class="cls-91" d="M688,388.4a47.39,47.39,0,0,1-2.19-8.69c-.31-2.12.52-4.65,2-5.16s4.1-1.26,4.39,1.22,1.7,6.69,0,8.56-.91,2.83-2.37,4.07S688,388.4,688,388.4Z"/><path class="cls-91" d="M697.43,388.4a19.82,19.82,0,0,1,.75-7.41c.44-1.15.18-2.87,2-1s2.39,7.62,2.39,7.62.13,6.64-2,5.2A10.19,10.19,0,0,1,697.43,388.4Z"/><path class="cls-91" d="M674.54,380.09a3.91,3.91,0,0,0,2.79-4.32c-.16-1.88-1.58-4.87-2.79-5.1s-2-2.33-2.66.71-1.19,6.3-1.19,6.72S674.54,380.09,674.54,380.09Z"/><path class="cls-91" d="M674,384.33c1.46,2.62,4.37,1.23,5.15,3.27a21,21,0,0,1,.79,5.81s-.53,4.45-3.57.81a18,18,0,0,1-4-8.08C671.88,384.35,673.64,383.65,674,384.33Z"/><path class="cls-91" d="M670.69,398.25c1.58,1.19,2.55,3.44,3.32,5.16s1.71,3.57.91,4.37-3.44-.72-4.23-1.95-1.81-3.84-1.7-4.45A20.93,20.93,0,0,1,670.69,398.25Z"/><path class="cls-91" d="M669,398.25c2,0,1-3.08-.42-5.45s-5.57-5.67-6.49-5.94-.12,6.5.73,7.36S667.29,398.25,669,398.25Z"/><path class="cls-91" d="M657.44,394.94c.8,0-.26-3.27-.39-5.08s-.67-6.29-2.25-3.72a8.83,8.83,0,0,0-1.28,6.66C653.87,394.67,657.44,394.94,657.44,394.94Z"/><path class="cls-91" d="M657.74,382.9c1.56-.41,2.62.49,2.22-2.81s.51-6.47-1.07-6.34-3.52,2.55-3.35,3.84,0,5.31,1.11,5.31Z"/><path class="cls-91" d="M667.11,378.1c1.86-1,3.93-3.34,3-4.35s-1-3.09-1.42-4.39-2-4.62-2.83-3.15a5.72,5.72,0,0,0-.79,4.09,48.44,48.44,0,0,1-.05,5.48C665,377.33,667.11,378.1,667.11,378.1Z"/><path class="cls-97" d="M731.24,358.38A173.43,173.43,0,0,1,731,390c-1.57,3.13-4.17,9.31-5.73,12.9-2.92,6.68-20.14,24-16.1,17.13s0-4.21-6.53,2.8-17.52,21.56-17.52,21.56-16.21-27.42-17.3-24.36-2.13,3.78-5.76-5.53-10-15.77-10.2-10.93-7.3-1.33-7.53-15.93A79.8,79.8,0,0,0,642,370.19a33.76,33.76,0,0,0,1.1,23.22c6.09,14.5,16.94,25.63,25.55,35.42s16,18.81,16,18.81,10.86-15.36,23.57-22.25,24.54-21.22,27.81-37.07C738.43,377,736.06,365.91,731.24,358.38Z"/><path class="cls-95" d="M623.47,387.07c5.49,13.34,9.86,29.19,15,48.47s1.2,35-17.07,47.59-37.75,18.62-51.65,7.67-44-19.6-28.83-39.18S623.47,387.07,623.47,387.07Z"/><path class="cls-96" d="M625.05,382.92c-6.45-.26-12,2.65-15.17,4.23s-20.92-.53-28.34,0-27,1.06-38.93,10.6-14.83,27-11.65,44,8.21,26.48,25.16,33.63,27.28,10.06,40.25,6.36,28.34-12.45,32.84-30.2,4.5-34.16,0-42.1-4.09-17.74-4.16-19.33S626.43,383,625.05,382.92Z"/><path class="cls-88" d="M580.41,477.54c-9.42,0-18.51-4-28.61-12.67-15.57-13.31-14.18-42-10.18-50.84,5-11,17.5-15.1,22.64-16.35,6.15-1.5,15.18-3,21.51-3a19.69,19.69,0,0,1,5.72.66c3.72,1.18,11.53,1.77,15.72,2.08,1.2.09,2.13.16,2.65.22l1.56.17.38,1.52c0,.07,1.81,7.17,4,11.09s8.94,17.71,5.33,34.42c-3.69,17-10.44,22.54-25.18,29.13a37.88,37.88,0,0,1-15.56,3.58Z"/><path class="cls-2" d="M609.61,399.87c-2.38-.27-13.77-.8-18.8-2.39s-18.4.53-26,2.39-17.15,6.35-21.13,15.09-4.66,36,9.59,48.2,27,15.36,41.79,8.74S615.57,460,619,444.36s-2.72-28.6-5.1-32.84S609.61,399.87,609.61,399.87Z"/><path class="cls-91" d="M604.78,402c-.83-1.94-2.09-2.72-5.63-.92s-5,2.06-3.54,3.25a7.51,7.51,0,0,0,4.31,1.32C600.51,405.66,605.09,402.73,604.78,402Z"/><path class="cls-91" d="M608.32,404.87c-1.59.53-2.52,2.82-2.65,3.13s-.26,3,1.33,2,2.24-1,2.78-2S608.32,404.87,608.32,404.87Z"/><path class="cls-91" d="M612.42,415.71c-2.19.75-1.77,3.59-1.87,5.58s-.27,5.43.94,4.77,1.6-.67,2.26-3.18S614,415.17,612.42,415.71Z"/><path class="cls-91" d="M599.92,418.87c-2.87,1.48-7.23,6.68-4.31,5.54s4.9-.61,6.22-1.4S601.82,417.89,599.92,418.87Z"/><path class="cls-91" d="M605.6,427.38c-2.4,1.84-3.8,4.24-5.51,6.49s-5.28,8.34-2.23,6.61,4.1-2.14,6-4.38,4.9-2.1,5.42-4.22S607,426.31,605.6,427.38Z"/><path class="cls-91" d="M601,408c-2.3.87-2.86.83-6.4,2.23s-6.45,3.55-3.4,3.93,3.85.41,5.43,0,4.24-1,5.69-2.41S602.7,407.37,601,408Z"/><path class="cls-91" d="M585.94,407.55s-4.5.5-6.75,2.48-3.31,6.12-.93,5.64A13.45,13.45,0,0,0,584,413a42.49,42.49,0,0,0,4.37-3.51C589.38,408.44,587.07,407.37,585.94,407.55Z"/><path class="cls-91" d="M582.75,398.91c-1.24.57-4.88,2.37-1.57,2.18s5.56-1.06,6.22-.89,3.18-1.29,3.18-1.29S587.64,396.66,582.75,398.91Z"/><path class="cls-91" d="M575.08,399.51c-3.64,3.38-8.07,1-8.47,2.5s.26,1.75,2.78,1.12,4.9-.89,6.36-2S576,398.65,575.08,399.51Z"/><path class="cls-91" d="M574.69,404.07c-3.84,2.12-7.37,1.72-8.19,3.84s-1.08,5.83,2.49,3.71a51.9,51.9,0,0,0,7.92-6c2-1.72,2.81-2.69,1.35-2.53A18.35,18.35,0,0,0,574.69,404.07Z"/><path class="cls-91" d="M562.24,402.87a21.81,21.81,0,0,0-7.28,3.59c-.66.79-4.51,5.1-3.18,5.79s3.75,1.48,5.65-.63,3.88-4.76,4.81-6S563.64,402.71,562.24,402.87Z"/><path class="cls-91" d="M555.66,416.26a22.61,22.61,0,0,0-5.07,5.39c-.93,1.23-2,3.16,0,2.92s2.78-.84,4.37-2.92a22.61,22.61,0,0,0,3-4.47C558.4,416.12,557.08,415.23,555.66,416.26Z"/><path class="cls-91" d="M566.5,416.92c-1.61,1.25-5.92,6.64-7,7.49s-2.94,4-.56,4.43,3.84-.93,6-3.58,4-4.46,5-6.53S567.21,416.37,566.5,416.92Z"/><path class="cls-91" d="M555,430c-1.27.52-4.24,2.25-4.9,4.37s.26,10.72,1.71,8.34,3.85-3.69,4.51-6.15S555.73,429.71,555,430Z"/><path class="cls-91" d="M570.1,427.18s-7,5.07-7,6.8a2.43,2.43,0,0,0,3.49,2.12C568.2,435.32,574.66,425.92,570.1,427.18Z"/><path class="cls-91" d="M588.6,418c-2.24-.28-7.42-2.05-10.6.89s-3.54,5.33-1.57,6.26S589,422.51,590,420.9,590.7,418.24,588.6,418Z"/><path class="cls-91" d="M593,430.56c-3.29.41-6.65.73-7.76,2.55a4.79,4.79,0,0,0,.74,5.39c1.06,1.06,2.52,1.46,4.64-.66S596.75,430.07,593,430.56Z"/><path class="cls-91" d="M581.18,435c-1.58.44-6.76,2.1-7.16,3.68s-.62,4.93,2.41,4.52a7.27,7.27,0,0,0,5.67-3.87C583.16,437.44,582.18,434.67,581.18,435Z"/><path class="cls-91" d="M563.94,439.06c-1.68.33-4.15.63-6.17,3.15s-3.49,5.29-1.3,4.77,4.56-2.54,7.47-3.93S566,438.64,563.94,439.06Z"/><path class="cls-91" d="M570.85,447.64c-3.05.26-5.43,1.85-8.21,1.06s-7.92,1.48-7.68,3.18-.92,4.63,3.11,3.43,8.94-.52,10.66-2.38S570.85,447.64,570.85,447.64Z"/><path class="cls-91" d="M585.2,444.46c-1.64.14-7.52,1.06-8.29,1.85a15.86,15.86,0,0,0-2.36,4.11c0,.39,2.69,3.32,4.46,1.2s5.58-4,6.19-4.58S586.74,444.32,585.2,444.46Z"/><path class="cls-91" d="M601,442.21a9.31,9.31,0,0,0-6.4,1.25c-2.48,1.66-4.31,2.59-5,3.58s-1.13,2,1,2.19,4.64-1.59,6.09-2.19S601,442.21,601,442.21Z"/><path class="cls-91" d="M607.73,444.45a15.71,15.71,0,0,0-4.7,3.19c-1.46,1.59-2.79,3.72-2,4s.89.25,3.23-1.33,4.45-1.86,5-3.25S609,443.9,607.73,444.45Z"/><path class="cls-91" d="M616,433.11c-2.64.14-3.23.33-3.74,3s-1.52,5.1-.41,6,1.9,1.7,3.22-.55,2.12-3.18,2.39-4.37S617.69,433,616,433.11Z"/><path class="cls-91" d="M616,447.64a11,11,0,0,0-4.65,4c-1,1.45-2.56,3.19-.88,4s4.88-.82,5.53-2S616.7,447.31,616,447.64Z"/><path class="cls-91" d="M601.7,452.93c-1.14.65-3.58,1.63-6,2.87s-7,2.83-5.16,4,4.89,2.78,7,1.06,7.11-6,7.19-6.09S603.73,451.79,601.7,452.93Z"/><path class="cls-91" d="M607.73,457.15c-1.78.6-5.77,2-6.69,2.93s-2.64,1.74-4.37,3.65-3.88,4.9-.93,3.64,4.24-1.86,6.09-2.78a26.77,26.77,0,0,0,5.9-4C608.85,459.42,609.27,456.64,607.73,457.15Z"/><path class="cls-91" d="M586,454.79c-2.21-.33-3.84-1.06-5.74,0S576.71,458,579,458s4.24.39,5.65,0a6.43,6.43,0,0,0,3-2.17C587.66,455.58,586.62,454.87,586,454.79Z"/><path class="cls-91" d="M587,462.38c-1.22.25-4.1.75-5.82.88s-3.93-.12-5.41.47-2.8,1.78-1.22,3.11,2.46,3.71,5.27,2.91,5.86-1.59,7.18-2.91S588.89,462,587,462.38Z"/><path class="cls-91" d="M572.5,458.89c-.64-.31-4.75-2-6.51-1.8s-6.46.88-6.5,1.8,1.29,3.85,3.41,4a52.45,52.45,0,0,0,8,0c1.32-.26,3.64-1.58,2.95-2.11S573.25,459.26,572.5,458.89Z"/><g class="cls-98"><path class="cls-96" d="M624.28,448.81a10,10,0,0,0-1.38,3.33C622.22,454.86,623.1,453,624.28,448.81Z"/><path class="cls-96" d="M614.6,472.9a38,38,0,0,0,14.61-21.4c4.5-17.74,4.5-34.16,0-42.1s-4.09-17.74-4.16-19.33,1.36-7,0-7.15c-3.84,12.81-5.15,33.18-2.17,27.51,3.77-7.19,2.4-5.57,4.43,10.47,1.22,9.68-1.26,21.52-3.05,27.91,1.7-2.42,2.93.68-4.33,12.59A43.94,43.94,0,0,0,614.6,472.9Z"/></g><path class="cls-97" d="M602.93,387.75c-6.76-.11-16.4-.95-21.39-.6-7.41.54-27,1.06-38.93,10.6-6.73,5.38-10.59,13.31-12.1,22.24,4.65-8.1,9.56-16.55,12.93-19,8.72-6.33,22-4.55,41.92-8.44C595.44,390.59,600,389.38,602.93,387.75Z"/><text class="cls-99" transform="translate(96.36 483.31)">4</text><text class="cls-99" transform="translate(899.73 515.9)">4</text></g></g></g></svg>