<svg id="Layer_3" data-name="Layer 3" xmlns="http://www.w3.org/2000/svg" viewBox="0 0 280.59 419.11"><defs><style>.cls-1{fill:#fff;}</style></defs><path class="cls-1" d="M846.21,544c0,80.32-62.81,145.44-140.3,145.44S565.62,624.36,565.62,544a147.8,147.8,0,0,1,38.62-100.21,5.72,5.72,0,0,1,9.4,1.49C620,459,635.82,486,663.06,486c21.92,0,16.58-38.82,15.44-84.58-.4-16.37-.27-33.62,1.84-50.3,3.86-30.53,15.89-59.3,29.57-78.3a5.74,5.74,0,0,1,10.4,3.64c-1.09,18.47.5,48.58,16.67,78,.88,1.6,11.41,20.07,30.72,44.78,7,8.94,13.95,18.16,21.23,27.57,5.79,7.47,11.78,15.06,18.13,22.69A158,158,0,0,1,818.44,465c.62.95,1.22,1.9,1.81,2.85q1.29,2.08,2.5,4.17l1.08,1.89c1.07,1.88,2.08,3.77,3,5.64l1,1.87.88,1.76c.32.65.63,1.3.94,1.95s.58,1.23.86,1.84c.85,1.83,1.66,3.65,2.42,5.44l.75,1.79.72,1.77c.23.59.47,1.17.69,1.75s.45,1.16.67,1.73c.44,1.15.86,2.29,1.26,3.41.2.56.4,1.12.59,1.67l.57,1.65.54,1.62c.18.54.35,1.07.52,1.6s.34,1,.49,1.56.32,1,.48,1.55c2,6.61,3.38,12.41,4.29,17,.13.62.24,1.22.35,1.79,0,.08,0,.15,0,.22.15.78.28,1.51.4,2.2.56,3.24.8,5.39.85,6.14a1.16,1.16,0,0,1,0,.17C846.19,541.34,846.21,542.69,846.21,544Z" transform="translate(-565.62 -270.37)"/></svg>